<svg width="1660" height="1318" viewBox="0 0 1660 1318" fill="none" xmlns="http://www.w3.org/2000/svg">
<rect width="1660" height="1318" fill="#311F1F"/>
<g clip-path="url(#clip0_224_8308)">
<g clip-path="url(#clip1_224_8308)">
<path d="M1737.8 344.066L1810.61 364.283L2068.7 441.122V846.807V1252.49H-34.6432V309.734C-34.6886 306.111 -34.6676 302.711 -34.6432 299.569V309.734C-34.2077 344.542 -27.6523 400.034 40.83 446.558C135.345 510.767 81.3174 477.055 147.797 517.552C225.992 565.186 258.79 491.149 312.245 503.553C355.009 513.476 387.62 488.842 424.71 495.554C461.801 502.265 552.671 581.047 587.45 586.322C622.684 591.666 789.649 586.322 827.61 586.322C857.979 586.322 916.845 593.433 958.571 598.352C1017.03 605.243 1047.52 590.764 1093 564.548C1134.53 540.616 1137.49 534.336 1168.48 521.052C1283.94 471.556 1353.29 475.304 1402.9 427.559C1484.81 348.74 1614.17 320.875 1737.8 344.066Z" fill="#FFC379"/>
<path d="M185.437 819.108C35.0882 786.084 -159.777 659.597 -261.607 608.456V1326.04H1842.81V848.567C1817.03 879.757 1747.06 947.639 1673.44 969.655C1581.4 997.175 1376.72 990.408 1345.01 998.664C1317.55 1005.81 1068.91 1077.78 929.699 1059.9C790.487 1042.01 836.76 1080.54 651.918 998.664C467.076 916.792 373.373 860.388 185.437 819.108Z" fill="#F0AA76"/>
<path d="M1621.69 702.538C1641.25 685.794 1681.95 651.003 1688.35 645.794L1742.56 702.538V791.839H1793.22V715.561L1855.43 671.84L1888.32 715.561C1906.68 716.491 1956.57 720.026 2009.18 726.724C2061.8 733.421 2085.02 764.863 2090.06 779.747C2106.35 833.7 2119.21 939.559 2040.29 931.373C1961.37 923.187 1877.06 934.784 1844.77 941.606C1767.15 955.559 1584.37 986.443 1474.16 998.35C1336.41 1013.23 1386.18 973.234 1339.96 949.978C1302.99 931.373 1293.16 884.552 1292.86 863.467V779.747L1356.85 738.817L1456.39 726.724C1467.35 737.266 1503.31 759.84 1559.48 765.793C1615.65 771.747 1624.36 758.351 1621.69 750.91V702.538Z" fill="#FAE684"/>
<path d="M-30.6754 701.062C-3.82565 680.246 52.0707 636.995 60.858 630.519L93.8984 665.226L135.305 702.355V812.081H202.729L203.975 798.809V774.594L195.252 720.112L231.806 702.355L290.302 662.899L335.458 717.252C360.681 718.409 429.188 722.803 501.439 731.13C573.689 739.456 605.583 778.544 612.499 797.048C634.874 864.122 652.53 995.726 544.154 985.549C435.779 975.372 319.999 989.789 275.656 998.27C169.071 1015.62 -81.9341 1054.01 -233.269 1068.81C-422.438 1087.32 -354.093 1037.59 -417.557 1008.68C-468.327 985.549 -481.833 927.341 -482.24 901.128V797.048L-394.368 746.164L-257.678 731.13C-242.626 744.236 -193.239 772.299 -116.107 779.701C-38.9745 787.102 -27.0141 770.449 -30.6754 761.198V701.062Z" fill="#FAE684"/>
<path fill-rule="evenodd" clip-rule="evenodd" d="M-366.817 208.164C-383.564 208.164 -397.14 221.74 -397.14 238.487V261.892C-397.14 268.505 -395.023 274.624 -391.429 279.607H-664.146C-680.893 279.607 -694.469 293.183 -694.469 309.93V344.892C-694.469 361.639 -680.893 375.215 -664.146 375.215H-302.728H-214.184H-184.286C-181.44 389.009 -169.225 399.379 -154.589 399.379H295.373C312.12 399.379 325.696 385.803 325.696 369.056V357.209C325.696 340.462 312.12 326.886 295.373 326.886H177.557V309.93C177.557 293.183 163.98 279.607 147.233 279.607H107.758C111.351 274.624 113.468 268.505 113.468 261.892V238.487C113.468 221.74 99.8918 208.164 83.1448 208.164H-366.817Z" fill="#FAE684"/>
<path fill-rule="evenodd" clip-rule="evenodd" d="M1439.37 324.785C1439.37 309.699 1451.6 297.469 1466.68 297.469H1697.82C1712.91 297.469 1725.14 309.699 1725.14 324.785C1725.14 339.872 1712.91 352.102 1697.82 352.102H1629.61L1748.25 352.102C1763.34 352.102 1775.57 364.332 1775.57 379.418C1775.57 394.505 1763.34 406.735 1748.25 406.735H1517.11C1506.58 406.735 1497.43 400.767 1492.88 392.026H1374.23C1359.14 392.026 1346.91 379.796 1346.91 364.709C1346.91 349.623 1359.14 337.393 1374.23 337.393H1442.44C1440.48 333.621 1439.37 329.333 1439.37 324.785Z" fill="#FAE684"/>
<path d="M199.18 717.115C216.166 713.131 282.472 668.095 286.599 664.126C292.813 659.345 293.938 665.321 297.785 671.297C314.772 695.6 330.101 710.74 336.316 716.318" stroke="#F36648" stroke-width="5.62089" stroke-linecap="round"/>
<path d="M199.18 717.944C208.736 733.102 204.81 759.515 205.92 758.912C215.384 756.439 223.714 753.716 232.419 748.847C246.962 740.715 251.117 737.575 260.868 728.488C264.328 725.263 268.884 720.498 270.858 720.666C279.686 721.418 300.146 742.748 335.464 760.233" stroke="#F36648" stroke-width="5.62089" stroke-linecap="round"/>
<path d="M344.836 794.229C335.869 802.554 321.868 815.602 312.454 823.455C298.795 834.849 282.967 843.629 268.104 853.47C262.182 857.39 260.017 856.753 262.183 861.588C266.709 871.696 272.24 881.06 276.097 891.489C282.609 909.093 287.585 925.184 287.585 944.144C287.585 949.643 286.978 955.299 282.256 957.579" stroke="#F36648" stroke-width="5.62089" stroke-linecap="round"/>
<path d="M348.24 795.888C365.885 813.057 399.976 830.334 422.345 840.664" stroke="#F36648" stroke-width="5.62089" stroke-linecap="round"/>
<path d="M353.087 722.92C348.151 730.914 342.028 754.733 355.906 766.038" stroke="#F36648" stroke-width="5.62089" stroke-linecap="round"/>
<path d="M287.764 673.998C282.994 678.841 272.143 715.693 269.877 719.603" stroke="#F36648" stroke-width="5.62089" stroke-linecap="round"/>
<path d="M62.0449 636.685C62.0449 642.43 74.8216 672.8 74.8216 677.315" stroke="#F36648" stroke-width="5.62089" stroke-linecap="round"/>
<path d="M211.105 689.752C216.714 694.855 217.068 701.02 217.068 707.994" stroke="#F36648" stroke-width="5.62089" stroke-linecap="round"/>
<path d="M217.068 687.252C222.59 683.875 229.947 683.637 231.071 688.529C231.38 689.87 231.325 694.025 233.252 698.873" stroke="#F36648" stroke-width="5.62089" stroke-linecap="round"/>
<path d="M218.489 680.108C211.236 679.711 206.983 674.832 204.081 668.702C201.384 660.255 207.676 651.882 213.858 646.238C224.302 636.704 236.087 629.722 249.672 636.419C256.304 639.689 258.297 645.311 261.752 648.897C266.357 653.676 273.946 653.577 280.217 652.943C310.809 649.849 300.134 610.935 283.658 597.189" stroke="#F36648" stroke-width="5.62089" stroke-linecap="round"/>
<path d="M-9.50391 686.015C-7.63563 684.517 47.108 634.948 60.8447 630.895C64.1748 629.913 102.055 675.478 137.854 703.848" stroke="#F36648" stroke-width="5.62089" stroke-linecap="round"/>
<path d="M6.51953 741.271C8.38781 739.773 63.1315 690.204 76.8682 686.151C80.1983 685.169 99.0978 705.445 134.897 733.816" stroke="#F36648" stroke-width="5.62089" stroke-linecap="round"/>
<path d="M54.3606 814.129C54.3606 801.165 54.3606 785.1 53.5254 770.585C54.3606 763.73 71.0586 762.673 75.6592 762.118C85.2872 760.956 85.9018 764.2 85.9018 773.004C85.9018 783.771 85.9018 795.164 85.9018 806.014C85.9018 809.037 105.187 805.1 108.229 804.759C120.069 803.434 128.279 811.71 139.555 813.726" stroke="#F36648" stroke-width="5.62089" stroke-linecap="round"/>
<path d="M135.297 722.091C135.297 732.235 135.297 821.816 135.297 811.673" stroke="#F36648" stroke-width="5.62089" stroke-linecap="round"/>
<path d="M234.131 830.368C234.131 825.468 233.29 796.587 240.864 797.57C247.175 798.39 254.329 798.821 260.242 800.097C267.793 801.726 265.142 834.293 265.269 836.518" stroke="#F36648" stroke-width="5.62089" stroke-linecap="round"/>
<path d="M212.094 839.006C214.672 839.006 249.55 840.41 252.128 840.41C259.064 840.41 251.446 848.188 247.91 850.246C241.919 853.732 234.463 851.687 226.232 850.824C216.506 849.805 208.485 848.742 199.339 848.742C185.721 848.005 178.54 857.414 188.482 859.05C198.01 860.618 204.319 861.782 212.094 862.28C219.136 862.732 224.401 862.28 229.906 862.28C233.887 862.28 241.448 861.669 239.707 867.256C235.757 879.934 213.973 868.702 204.612 872.81C202.001 873.957 200.487 878.943 204.319 878.943C208.382 878.943 212.444 878.943 216.506 878.943C222.009 878.943 227.815 878.572 233.028 880.043C236.032 880.89 242.112 887.731 240.82 890.92C240.611 891.436 230.399 895.734 234.669 895.606C238.685 895.486 239.707 894.51 246.269 893.524C255.174 892.185 256.154 893.912 261.561 899.251C264.475 902.129 262.382 903.069 260.213 905.211C256.317 909.058 272.108 900.146 277.543 899.251" stroke="#F36648" stroke-width="5.62089" stroke-linecap="round"/>
<path d="M326.094 770.184C325.19 781.272 325.243 814.741 325.243 803.598" stroke="#F36648" stroke-width="5.62089" stroke-linecap="round"/>
<path d="M138.703 813.106C138.703 804.947 141.493 791.825 150.652 788.778C157.646 786.452 157.234 796.229 155.739 800.033C154.553 803.05 146.751 813.055 152.308 810.264C158.026 807.392 166.803 807.548 168.515 814.13" stroke="#F36648" stroke-width="5.62089" stroke-linecap="round"/>
<path d="M198.484 894.561C189.321 901.095 178.866 909.074 173.131 918.808C167.436 928.474 167.593 934.529 175.425 942.028C198.484 964.105 257.704 969.084 258.779 983.162C259.351 990.646 250.566 997.141 244.487 999.913C219.922 1011.11 189.235 1012.41 162.555 1016.45" stroke="#F36648" stroke-width="5.62089" stroke-linecap="round"/>
<path d="M383.74 965.87C387.905 924.003 378.28 908.205 378.939 906.475C380.57 902.194 389.154 896.629 395.817 890.993C403.73 884.3 406.558 881.189 412.282 874.893C414.189 872.794 422.47 885.446 428.3 890.993C436.047 898.363 445.61 905.885 454.633 911.803C460.006 915.328 451.204 946.145 454.633 962.65" stroke="#F36648" stroke-width="5.62089" stroke-linecap="round"/>
<path d="M417.236 863.224C434.679 866.711 451.291 868.747 472.886 867.23C484.099 866.442 488.787 865.613 495.202 863.918C496.186 863.658 501.103 861.842 502.04 862.295C503.533 863.018 507.32 869.218 508.186 870.465C511.513 875.253 512.6 876.397 516.52 880.736C522.68 887.555 530.904 895.727 537.257 902.244C544.317 908.68 509.225 913.159 499.894 916.71C492.712 919.443 491.159 923.161 489.498 931.207C487.172 942.47 488.867 953.4 493.593 962.554" stroke="#F36648" stroke-width="5.62089" stroke-linecap="round"/>
<path d="M533.076 910.315C527.183 924.133 521.953 938.797 525.976 955.091" stroke="#F36648" stroke-width="5.62089" stroke-linecap="round"/>
<path d="M450.453 970.846C442.301 970.846 439.337 967.778 432.787 962.993C430.379 961.233 426.531 955.975 421.341 960.629C416.151 965.283 419.067 963.132 413.082 959.337C408.233 956.262 404.221 957.2 402.754 962.316" stroke="#F36648" stroke-width="5.62089" stroke-linecap="round"/>
<path d="M402.884 961.028C402.884 956.428 403.756 948.377 405.403 944.079C406.593 940.974 407.084 936.518 401.408 935.306C391.924 933.28 393.48 958.543 393.48 963.383" stroke="#F36648" stroke-width="5.62089" stroke-linecap="round"/>
<path d="M421.993 930.582C420.411 935.682 419.986 939.611 421.993 942.698C424 945.786 429.626 943.809 430.714 942.001C432.037 939.8 432.567 933.21 432.567 930.582C432.567 928.047 428.494 927.728 425.152 927.728" stroke="#F36648" stroke-width="5.62089" stroke-linecap="round"/>
<path d="M502.288 935.17C502.288 939.587 499.269 945.238 505.533 944.184C509.776 943.47 512.634 943.42 512.634 939.158C512.634 937.359 512.634 932.777 511.726 930.212C510.235 925.996 504.81 927.946 503.585 930.212" stroke="#F36648" stroke-width="5.62089" stroke-linecap="round"/>
<path d="M53.5254 749.73C53.5254 738.264 63.1796 728.147 75.8355 735.209C82.5853 738.976 83.1722 750.375 78.9943 750.806C72.7121 751.455 65.9872 750.87 59.6543 750.87" stroke="#F36648" stroke-width="5.62089" stroke-linecap="round"/>
<path d="M235.655 773.294C234.012 779.809 234.842 787.39 242.727 789.246C251.443 791.298 254.417 791.631 259.743 789.246C265.069 786.862 263.632 770.909 257.964 770.909C250.811 770.909 244.785 770.739 238.067 768.524" stroke="#F36648" stroke-width="5.62089" stroke-linecap="round"/>
<path d="M277.584 803.503C277.584 798.493 276.714 790.511 283.033 789.572C296.076 787.633 293.525 794.79 293.525 805.008" stroke="#F36648" stroke-width="5.62089" stroke-linecap="round"/>
<path d="M51.8223 822.813C58.7693 827.364 65.895 828.797 73.1808 828.031C78.4352 827.479 85.8145 824.845 89.3005 821.593" stroke="#F36648" stroke-width="5.62089" stroke-linecap="round"/>
<path d="M56.9336 837.633C66.3776 838.676 70.2786 840.113 84.4254 837.633C87.5761 836.713 89.4183 836.383 94.4118 834.03" stroke="#F36648" stroke-width="5.62089" stroke-linecap="round"/>
<path d="M64.5996 852.273C74.2902 852.273 91.2659 851.077 96.1154 841.493" stroke="#F36648" stroke-width="5.62089" stroke-linecap="round"/>
<path d="M73.9688 867.197C83.0037 866.847 88.7999 861.775 93.5596 855.589" stroke="#F36648" stroke-width="5.62089" stroke-linecap="round"/>
<path d="M-12.0605 805.009C6.16956 805.009 34.7444 814.198 28.9031 836.428C23.9459 851.443 9.06683 851.443 2.42085 851.443" stroke="#F36648" stroke-width="5.62089" stroke-linecap="round"/>
<path d="M142.963 834.03C137.516 847.093 114.694 857.475 111.105 861.845C108.939 864.483 114.187 870.361 117.328 876.738C122.431 887.098 118.241 907.698 118.241 913.632" stroke="#F36648" stroke-width="5.62089" stroke-linecap="round"/>
<path d="M127.631 883.781C128.143 888.745 127.631 892.239 127.631 897.877" stroke="#F36648" stroke-width="5.62089" stroke-linecap="round"/>
<path d="M120.816 871.171C135.829 869.979 140.416 859.646 144.602 861.651C147.088 862.842 160.967 873.112 160.849 874.35C160.133 881.861 159.142 888.495 159.142 896.677C159.142 899.393 159.681 907.335 159.142 908.13C155.011 914.217 125.63 911.231 124.57 911.309" stroke="#F36648" stroke-width="5.62089" stroke-linecap="round"/>
<path d="M146.369 835.688C152.894 842.611 167.209 854.565 175.33 859.735" stroke="#F36648" stroke-width="5.62089" stroke-linecap="round"/>
<path d="M160 909.486C170.109 895.92 188.217 887.547 197.478 882.123" stroke="#F36648" stroke-width="5.62089" stroke-linecap="round"/>
<path d="M275.84 864.71C283.381 863.953 343.982 812.193 343.982 814.186" stroke="#F36648" stroke-width="5.62089" stroke-linecap="round"/>
<path d="M288.617 871.196C304.947 871.196 320.329 874.76 335.373 880.922C341.046 883.246 347.44 886.269 353.727 886.269C364.539 886.269 376.128 875.47 383.725 868.686C389.534 863.498 391.976 859.313 394.099 854.719C396.526 849.467 366.325 838.015 363.391 832.372" stroke="#F36648" stroke-width="5.62089" stroke-linecap="round"/>
<path d="M348.686 899.536C359.711 905.826 360.652 931.559 360.912 943.141C361.091 951.152 361.56 946.284 356.972 944.854C351.385 943.113 318.315 940.285 309.059 937.067" stroke="#F36648" stroke-width="5.62089" stroke-linecap="round"/>
<path d="M308.1 936.517C308.1 933.134 308.909 919.389 306.078 915.601C306.026 915.363 301.851 914.064 301.536 919.389C301.214 924.834 301.536 941.206 301.536 935.752" stroke="#F36648" stroke-width="5.62089" stroke-linecap="round"/>
<path d="M289.469 966.7C304.194 966.7 338.481 973.793 355.056 985.771" stroke="#F36648" stroke-width="5.62089" stroke-linecap="round"/>
<path d="M278.848 592.738C269.558 579.916 269.088 562.421 285.971 554.635C306.282 545.27 338.306 549.531 355.056 563.176" stroke="#F36648" stroke-width="5.62089" stroke-linecap="round"/>
<path d="M477.711 752.771C490.24 772.413 487.006 806.085 485.794 813.301" stroke="#F36648" stroke-width="5.62089" stroke-linecap="round"/>
<path d="M475.156 752.378C489.041 749.6 501.035 745.512 513.04 737.833C518.86 734.109 517.7 731.789 529.227 735.802C543.898 740.91 545.154 741.627 562.846 747.578C567.567 749.166 575.883 753.429 578.203 755.7C578.74 756.225 567.017 768.675 564.507 771.13C561.511 774.061 558.772 776.816 554.082 779.516C547.489 783.313 544.584 778.846 537.113 775.191C525.08 769.305 499.418 761.82 486.891 756.918" stroke="#F36648" stroke-width="5.62089" stroke-linecap="round"/>
<path d="M578.797 756.087C584.166 761.36 586.644 765.011 598.622 773.125C603.992 777.587 600.464 779.851 593.253 782.049C581.032 785.774 574.846 788.13 562.061 788.13C552.866 788.13 564.552 823.965 561.461 830.039C557.319 838.175 524.255 822.713 515.189 818.964" stroke="#F36648" stroke-width="5.62089" stroke-linecap="round"/>
<path d="M599.964 780.133C599.964 791.537 600.651 802.935 601.182 814.325C601.348 817.898 601.158 817.169 596.581 817.89C591.146 818.745 579.961 821.31 574.814 823.25" stroke="#F36648" stroke-width="5.62089" stroke-linecap="round"/>
<path d="M572.573 823.251C573.961 827.127 585.23 840.108 584.716 840.179C581.959 840.56 578.148 839.342 575.601 840.508C572.573 841.894 573.415 844.409 576.365 845.042C583.8 846.639 590.781 844.021 598.184 845.042C599.217 845.185 603.034 854.428 603.755 855.82C605.394 858.988 607.616 866.226 605.394 868.372C602.85 870.83 590.271 870.081 584.444 870.081C576.365 870.081 575.601 870.794 571.73 873.733C564.9 878.919 577.46 883.404 578.186 884.933C579.178 887.025 578.795 890.838 581.791 891.045C587.665 891.451 593.653 891.111 599.544 891.111" stroke="#F36648" stroke-width="5.62089" stroke-linecap="round"/>
<path d="M497.377 785.938C497.377 791.986 496.216 799.897 503.093 802.003C507.474 803.344 514.338 805.145 514.338 799.233C514.338 790.085 512.985 785.938 503.031 785.938" stroke="#F36648" stroke-width="5.62089" stroke-linecap="round"/>
<path d="M528.202 795.059C528.202 803.973 525.785 810.471 536.448 810.471C540.177 810.471 548.081 812.444 548.388 806.914C548.881 798.068 540.671 795.059 532.952 795.059" stroke="#F36648" stroke-width="5.62089" stroke-linecap="round"/>
<path d="M573.111 823.34C573.111 818.998 573.111 815.086 573.111 810.744C573.111 805.599 570.715 800.187 568.192 805.599C566.088 810.111 566.303 818.902 566.303 826.568" stroke="#F36648" stroke-width="5.62089" stroke-linecap="round"/>
<path d="M563.997 747.431C563.997 740.069 565.342 735.325 563.997 728.2C562.838 722.058 565.653 724.061 571.411 724.061C578.728 724.061 578.754 724.391 578.907 731.906C579.018 737.335 579.924 746.463 579.924 751.941" stroke="#F36648" stroke-width="5.62089" stroke-linecap="round"/>
<path d="M364.549 802.138C357.283 792.354 361.978 783.315 371.821 794.238C374.944 797.703 377.303 801.713 379.497 805.764C381.005 808.548 385.578 802.876 387.359 800.991C389.04 799.213 398.635 786.942 401.448 790.806C405.579 796.482 398.96 811.005 394.849 814.959" stroke="#F36648" stroke-width="5.62089" stroke-linecap="round"/>
<path d="M387.424 740.333C393.595 738.41 408.862 727.915 412.931 723.026C414.18 721.524 441.729 736.487 447.9 738.795" stroke="#F36648" stroke-width="5.62089" stroke-linecap="round"/>
<path d="M384.016 747.662C389.146 752.632 391.699 759.415 398.033 754.222C404.367 749.03 408.504 746.726 413.043 745.143C420.13 742.672 423.149 743.22 431.621 747.137C439.384 750.727 446.052 754.747 454.713 754.747" stroke="#F36648" stroke-width="5.62089" stroke-linecap="round"/>
<path d="M395.09 756.916C398.13 760.785 399.386 776.034 397.824 778.475" stroke="#F36648" stroke-width="5.62089" stroke-linecap="round"/>
<path d="M418.899 793.401C418.026 784.903 415.432 775.858 428.331 776.556C433.056 776.812 429.016 789.804 431.049 791.785C431.92 792.634 435.315 790.858 439.339 790.858C442.05 790.858 447.798 792.644 447.9 790.858C447.9 781.506 447.9 770.948 447.9 761.062" stroke="#F36648" stroke-width="5.62089" stroke-linecap="round"/>
<path d="M423.197 839.834C436.432 832.615 450.27 824.706 462.379 815.788" stroke="#F36648" stroke-width="5.62089" stroke-linecap="round"/>
<path d="M410.422 866.368C434.345 852.641 454.813 834.88 478.564 818.275" stroke="#F36648" stroke-width="5.62089" stroke-linecap="round"/>
<path d="M320.984 911.819C321.586 917.011 320.124 922.597 326.091 923.868C329.742 924.646 338.02 926.983 338.02 922.901C338.02 914.149 337.161 909.486 327.068 909.486" stroke="#F36648" stroke-width="5.62089" stroke-linecap="round"/>
<path d="M-6.94922 920.562C3.0329 920.562 30.8996 907.64 44.2091 899.564C50.032 895.526 50.3505 896.97 54.1912 899.564C62.1636 904.948 68.7485 909.792 78.1932 913.002C82.058 914.315 87.049 915.716 91.5539 916.913C95.9995 918.831 95.1795 918.887 95.1795 924.474C95.1795 945.463 93.9709 966.458 93.9709 987.509C93.9709 990.268 93.9709 993.028 93.9709 995.787C93.9709 997.296 96.0803 999.227 94.9109 1000.22C94.6034 1000.48 88.2968 995.23 84.1376 994.461C75.4032 992.845 79.9784 1000.22 71.6599 1000.22C65.1735 1000.22 62.4658 997.473 62.5496 1003.74C62.6838 1013.77 69.9728 1015.6 59.394 1013.32C52.7931 1011.9 45.7293 1007.52 38.9836 1007.52C33.2973 1007.52 41.913 1014.26 44.4219 1015.47C46.0498 1016.26 41.3409 1013.64 40.7964 1013.39C35.4148 1010.91 30.4478 1011.44 25.0857 1013.39" stroke="#F36648" stroke-width="5.62089" stroke-linecap="round"/>
<path d="M1.81195 946.8C1.84056 949.558 3.91012 1001.43 3.07085 1013.97C0.133418 1026.11 -8.68713 1007.79 -10.3574 1006.69" stroke="#F36648" stroke-width="5.62089" stroke-linecap="round"/>
<path d="M-2.69141 947.628C9.06773 947.628 39.4895 927.909 50.1188 924.411" stroke="#F36648" stroke-width="5.62089" stroke-linecap="round"/>
<path d="M62.0449 925.24C70.6308 925.932 79.1183 932.118 86.7465 935.19" stroke="#F36648" stroke-width="5.62089" stroke-linecap="round"/>
<path d="M39.8992 969.877C39.8992 974.942 39.6881 976.65 46.1234 976.65C51.7561 976.65 56.0822 976.775 56.0822 971.006C56.0822 962.012 43.1841 955.361 39.8992 964.298" stroke="#F36648" stroke-width="5.62089" stroke-linecap="round"/>
<path d="M95.2637 978.164C96.5473 976.788 108.276 963.195 112.827 965.253C117.739 968.05 105.673 980.914 105.673 989.087" stroke="#F36648" stroke-width="5.62089" stroke-linecap="round"/>
<path d="M108.039 989.088C116.781 983.138 129.98 976.452 141.258 972.504" stroke="#F36648" stroke-width="5.62089" stroke-linecap="round"/>
<path d="M1473.4 754.912C1468.27 763.541 1465.57 766.926 1459.88 774.398C1444.74 794.316 1403.29 828.959 1384.12 844.852" stroke="#F36648" stroke-width="5.62089" stroke-linecap="round"/>
<path d="M1478.69 744.992C1479.19 755.71 1526.22 819.435 1577.23 844.19" stroke="#F36648" stroke-width="5.62089" stroke-linecap="round"/>
<path d="M1482.66 744.331C1492.44 749.743 1559.29 772.059 1599.34 766.578C1605.23 778.378 1625.71 805.671 1634.98 814.951C1639.17 819.144 1647.02 827.783 1653.37 828.531C1656.05 828.847 1648.45 832.339 1648.33 832.395C1640.47 836.088 1632.38 839.335 1624.31 842.54C1617.05 845.425 1607.33 848.82 1599.34 848.82" stroke="#F36648" stroke-width="5.62089" stroke-linecap="round"/>
<path d="M1384.12 845.513C1392.14 847.673 1400.48 851.055 1406.8 856.098C1407.32 856.511 1398.9 858.26 1397.26 858.985C1394.22 860.331 1400.3 876.287 1401.01 878.766C1403.98 889.012 1414.03 931.868 1411.14 995.632C1425.57 994.947 1441.25 995.632 1455.55 995.632" stroke="#F36648" stroke-width="5.62089" stroke-linecap="round"/>
<path d="M1578.55 863.368C1566.85 895.454 1567.27 969.97 1570.86 982.406" stroke="#F36648" stroke-width="5.62089" stroke-linecap="round"/>
<path d="M1333.31 933.469C1332.76 933.469 1334.42 933.495 1334.97 933.578C1343.5 934.874 1352.38 940.532 1359.96 944.474C1362.01 945.542 1373.22 954.483 1374.64 953.179C1380.25 948.035 1391.06 943.324 1398.67 943.324" stroke="#F36648" stroke-width="5.62089" stroke-linecap="round"/>
<path d="M1375.05 944.049C1375.35 928.444 1376.02 912.881 1376.02 897.249C1376.02 895.218 1376.71 885.124 1374.46 884.123C1372.18 883.105 1370.16 882.569 1366.61 881.767C1355.21 879.187 1344.13 880.143 1332.51 880.143C1329.98 880.143 1327.46 880.143 1324.93 880.143C1321.62 880.143 1327.24 878.74 1332.51 877.243C1342.73 874.335 1346.94 871.996 1354.03 867.872C1361.16 863.722 1371.02 856.599 1375.05 849.157C1379.2 841.516 1387.62 854.96 1394.04 857.532" stroke="#F36648" stroke-width="5.62089" stroke-linecap="round"/>
<path d="M1382.14 887.837C1386.42 887.429 1390.37 885.333 1394.04 881.224" stroke="#F36648" stroke-width="5.62089" stroke-linecap="round"/>
<path d="M1368.91 838.899C1351.03 852.12 1328.5 857.188 1309.36 866.715C1298.86 873.697 1317.98 898.856 1306.96 916.274" stroke="#F36648" stroke-width="5.62089" stroke-linecap="round"/>
<path d="M1513.32 902.531C1512.99 914.416 1511.18 926.33 1510.43 938.494C1510.63 941.229 1518.66 940.716 1520.5 940.687C1522.98 940.648 1532.53 940.245 1534.51 938.282C1536.78 936.039 1537.21 931.474 1537.21 925.121C1537.21 917.497 1538.69 907.927 1535.42 902.002C1532.83 897.312 1521.09 899.675 1516.21 899.675" stroke="#F36648" stroke-width="5.62089" stroke-linecap="round"/>
<path d="M1454.53 994.31C1454.53 979.807 1446.38 929.873 1477.28 940.138C1487.15 943.419 1487.29 983.763 1487.29 992.047" stroke="#F36648" stroke-width="5.62089" stroke-linecap="round"/>
<path d="M1456.81 929.501C1469.21 919.01 1478.02 933.088 1480.56 926.828C1480.8 926.239 1480.87 918.177 1478.39 914.124C1471.85 903.428 1450.25 904.602 1450.25 919.01" stroke="#F36648" stroke-width="5.62089" stroke-linecap="round"/>
<path d="M1581.86 982.407C1588.94 974.57 1597.75 969.474 1607.18 964.865C1609.68 963.641 1614.8 960.069 1617.89 961.443C1621.46 963.028 1630.48 971.084 1625.68 962.619C1622.36 956.756 1619.53 941.442 1626.12 936.789C1626.79 936.316 1630.2 948.417 1630.55 949.624C1631.71 953.526 1632.54 958.383 1635.42 961.229" stroke="#F36648" stroke-width="5.62089" stroke-linecap="round"/>
<path d="M1644.68 970.502C1645.4 963.947 1660.59 948.018 1667.32 948.018C1669.62 948.018 1663.43 964.75 1663.07 966.573" stroke="#F36648" stroke-width="5.62089" stroke-linecap="round"/>
<path d="M1499.19 992.44C1507.77 990.658 1526.34 991.862 1534.24 996.956" stroke="#F36648" stroke-width="5.62089" stroke-linecap="round"/>
<path d="M1330.52 933.469C1330.52 925.843 1330.37 917.075 1326.2 910.462C1323.83 906.717 1337.57 906.358 1340.82 906.358C1350.24 906.358 1349.02 905.928 1349.02 914.279C1349.02 920.348 1349.02 926.418 1349.02 932.487" stroke="#F36648" stroke-width="5.62089" stroke-linecap="round"/>
<path d="M1330.55 946.694C1341.12 952.258 1341.43 952.323 1352.92 955.414C1352.92 955.414 1370.9 958.941 1370.9 963.41C1370.9 967.879 1367.93 969.828 1365.18 972.572C1360.94 976.793 1364.47 979.525 1368.01 983.24C1370.36 985.718 1367.68 987.528 1365.18 988.358" stroke="#F36648" stroke-width="5.62089" stroke-linecap="round"/>
<path d="M1356.35 737.718C1312.3 770.363 1280.8 772.283 1285.36 779.463C1293.03 791.515 1293.03 802.684 1293.03 813.139C1292.05 824.772 1291.41 824.132 1291.41 831.813C1293.03 839.174 1299.59 834.171 1301.05 834.693C1306.09 836.5 1301.66 852.404 1302.66 857.417" stroke="#F36648" stroke-width="5.62089" stroke-linecap="round"/>
<path d="M1296.83 784.429C1306.21 790.252 1315.04 797.092 1323.99 803.558C1329.22 807.334 1332.89 806.007 1339.02 802.52C1348.69 797.015 1352.88 792.178 1361.22 784.164C1365.13 779.846 1392.67 793.909 1398.01 797.673" stroke="#F36648" stroke-width="5.62089" stroke-linecap="round"/>
<path d="M1339.15 754.25C1343.94 755.712 1361.15 784.314 1361.64 783.323" stroke="#F36648" stroke-width="5.62089" stroke-linecap="round"/>
<path d="M1366.93 743.008C1373.18 746.877 1393.48 792.956 1398.01 798.559" stroke="#F36648" stroke-width="5.62089" stroke-linecap="round"/>
<path d="M1333.35 820.383C1333.69 826.655 1330.66 850.364 1334.52 855.433" stroke="#F36648" stroke-width="5.62089" stroke-linecap="round"/>
<path d="M1362.06 833.309C1357.23 827.577 1363.2 820.08 1370.34 822.017C1374.21 823.068 1373.89 829.392 1372.88 835.593" stroke="#F36648" stroke-width="5.62089" stroke-linecap="round"/>
<path d="M1401.32 799.882C1401.32 805.914 1401.81 811.749 1402.64 817.737" stroke="#F36648" stroke-width="5.62089" stroke-linecap="round"/>
<path d="M1452.53 774.091C1452.53 748.463 1446.44 746.192 1450.11 744.269C1457.02 740.65 1465.04 739.508 1471.79 741.002C1475.3 742.752 1473.7 752.86 1473.7 755.275" stroke="#F36648" stroke-width="5.62089" stroke-linecap="round"/>
<path d="M1461.73 740.363C1461.13 735.005 1450.02 728.797 1447.67 723.309C1444.52 715.94 1452.38 709.198 1456.88 706.071C1467.86 698.456 1488.39 701.568 1501.15 701.568C1514.69 701.568 1541.46 698.431 1548.18 684.216C1552.27 675.57 1547.13 670.35 1538.56 668.061C1530.1 665.799 1522.71 666.927 1513.7 666.927C1507.25 666.927 1502.21 664.762 1502.21 656.359C1502.21 642.392 1520.68 629.212 1531.93 623.516C1548.99 614.875 1567.39 613.623 1586.2 614.475C1621.23 616.061 1649.76 604.689 1677.75 584.291" stroke="#F36648" stroke-width="5.62089" stroke-linecap="round"/>
<path d="M1433.62 768.139C1429.47 768.139 1422.84 770.59 1419.42 775.642C1416 780.695 1410.29 789.594 1415.02 787.467C1422.67 784.029 1435.62 790.747 1442.98 792.608" stroke="#F36648" stroke-width="5.62089" stroke-linecap="round"/>
<path d="M1386.77 736.767C1391.61 738.048 1407.45 740.289 1418.52 725.922C1421.34 722.265 1422.09 720.261 1424.83 718.751C1428.78 716.576 1441.72 731.828 1446.95 733.553" stroke="#F36648" stroke-width="5.62089" stroke-linecap="round"/>
<path d="M1618.62 707.958C1623.21 720.765 1621.28 755.302 1620.2 761.749C1619.18 767.764 1617.44 773.533 1614.92 778.719" stroke="#F36648" stroke-width="5.62089" stroke-linecap="round"/>
<path d="M1636.09 787.02C1638.5 783.638 1639.43 776.642 1639.61 771.148C1639.76 766.609 1638.57 763.28 1644.05 762.079C1655.65 759.541 1655.98 760.274 1656.93 771.148C1657.51 777.797 1653.66 781.001 1653.12 785.219C1652.57 789.438 1654.01 790.981 1654.37 790.554C1657.83 786.514 1662.25 786.577 1666.65 788.82C1672.29 791.7 1677.46 789.565 1681.72 785.219" stroke="#F36648" stroke-width="5.62089" stroke-linecap="round"/>
<path d="M1651.3 835.593C1638.25 861.377 1634.76 932.505 1634.76 961.244" stroke="#F36648" stroke-width="5.62089" stroke-linecap="round"/>
<path d="M1390.73 953.97C1394.1 967.346 1395.36 980.579 1395.36 994.31" stroke="#F36648" stroke-width="5.62089" stroke-linecap="round"/>
<path d="M1392.72 952.818C1407.55 945.798 1406.59 985.167 1406.59 995.632" stroke="#F36648" stroke-width="5.62089" stroke-linecap="round"/>
<path d="M1381.48 960.583C1381.6 969.38 1381.48 981.554 1381.48 990.342" stroke="#F36648" stroke-width="5.62089" stroke-linecap="round"/>
<path d="M1381.48 960.583C1377.53 960.583 1374.2 964.374 1374.2 968.428C1374.2 974.638 1375.15 978.233 1375.15 989.02" stroke="#F36648" stroke-width="5.62089" stroke-linecap="round"/>
<path d="M1381.48 971.163C1385.06 971.163 1389.2 970.146 1393.38 966.534" stroke="#F36648" stroke-width="5.62089" stroke-linecap="round"/>
<path d="M1381.48 984.39C1385.33 983.929 1390.92 983.781 1394.7 981.745" stroke="#F36648" stroke-width="5.62089" stroke-linecap="round"/>
<path d="M1638.07 799.314C1640.76 797.792 1656.33 796.245 1659.89 801.865" stroke="#F36648" stroke-width="5.62089" stroke-linecap="round"/>
<path d="M1644.68 812.084C1648.91 808.605 1657.89 808.499 1662.8 810.262C1667.62 811.996 1660.92 815.085 1658.62 816.977C1648.41 825.385 1668.09 817.661 1672.46 820.59" stroke="#F36648" stroke-width="5.62089" stroke-linecap="round"/>
<path d="M1390.93 942.066C1390.93 937.429 1389.61 930.832 1387.59 926.645C1385.49 922.283 1387.58 923.629 1391.86 922.164C1395.63 920.876 1399.33 919.25 1399.33 924.8C1399.33 928.973 1399.33 941.494 1399.33 937.321" stroke="#F36648" stroke-width="5.62089" stroke-linecap="round"/>
<path d="M1457.32 851.999C1442.5 848.525 1442.17 832.727 1459 826.787C1466.99 824.701 1472.63 825.335 1480.53 830.482C1487.62 836.262 1485.04 846.09 1476.66 849.43C1468.28 852.769 1464.15 853.6 1457.32 851.999Z" stroke="#F36648" stroke-width="5.62089" stroke-linecap="round"/>
<path d="M1462.16 826.334C1461.21 835.161 1461.34 841.373 1462.16 846.174" stroke="#F36648" stroke-width="5.62089" stroke-linecap="round"/>
<path d="M1628.15 713.91C1632.63 711.265 1675.16 678.596 1679.7 676.309C1682.01 675.144 1693.52 685.167 1697.59 686.193" stroke="#F36648" stroke-width="5.62089" stroke-linecap="round"/>
<path d="M1442.57 336.342C1434.37 325.487 1439.49 311.019 1445.65 304.811C1449.24 301.192 1454.37 298.091 1463.6 298.091C1473.85 296.54 1659.16 299.007 1664.73 298.091" stroke="#FFC75E" stroke-width="5.62556" stroke-linecap="round"/>
<path d="M1430.96 338.929C1425.33 339.568 1382.79 336.869 1365.36 339.959C1351.01 344.079 1346.91 354.378 1346.91 366.222C1346.91 388.515 1370.3 393.076 1384.34 393.076" stroke="#FFC75E" stroke-width="5.62556" stroke-linecap="round"/>
<path d="M1492.95 394.127C1493.97 397.271 1499.07 405.654 1507.04 407.445C1520.51 409.189 1593.99 408.798 1617.97 408.798" stroke="#FFC75E" stroke-width="5.62556" stroke-linecap="round"/>
<path d="M102.963 218.146C119.773 233.38 108.623 276.014 107.434 278.025C105.871 280.668 111.533 279.983 114.11 279.715C119.273 279.178 131.518 278.025 136.707 278.025C144.41 278.025 144.215 277.595 151.6 278.689C156.409 279.402 161.364 281.935 164.973 285.527C168.974 289.508 172.085 293.006 174.397 298.283C177.122 304.506 179.154 310.667 179.057 317.527C179.026 319.713 179.057 322.485 179.057 324.681C179.057 328.299 178.455 327.695 182.785 328.104C194.226 328.104 204.721 327.275 215.282 326.971C246.609 326.067 253.799 326.214 277.936 326.214C283.585 326.214 302.587 326.971 304.94 328.258C311.831 329.791 322.102 337.457 323.129 342.056C325.697 351.765 325.697 373.228 325.697 377.316" stroke="#FFC75E" stroke-width="5.62556" stroke-linecap="round"/>
<path d="M1019.11 995.089C1023.05 996.025 1027.11 1000.36 1029.83 1002.61C1036.48 1008.09 1043.02 1013.68 1049.58 1019.25" stroke="#B56370" stroke-width="4.09877" stroke-linecap="round"/>
<path d="M1031.72 983.531C1043.62 994.761 1055.01 1006.47 1066.39 1018.2" stroke="#B56370" stroke-width="4.09877" stroke-linecap="round"/>
<path d="M803.734 971.664C805.532 961.942 818.341 934.974 816.074 944.601C813.508 955.495 811.153 965.988 810.675 977.228" stroke="#B56370" stroke-width="4.09877" stroke-linecap="round"/>
<path d="M813.326 983.531C812.628 980.055 814.743 977.112 816.494 974.165C819.974 968.307 823.95 962.817 827.898 957.266" stroke="#B56370" stroke-width="4.09877" stroke-linecap="round"/>
<path d="M817.582 988.785C816.087 982.61 823.854 975.449 826.848 970.924" stroke="#B56370" stroke-width="4.09877" stroke-linecap="round"/>
<path d="M-3.15234 425.12C25.9921 442.567 67.7308 492.762 98.0655 507.993C107.37 512.664 114.451 514.323 125.725 514.458C138.707 514.613 140.011 517.666 150.602 526.988C159.255 534.604 169.23 547.88 180.884 551.011C192.58 554.154 220.132 563.008 225.075 575.913C228.427 584.664 227.612 591.358 234.135 599.936C238.987 606.315 252.151 619.718 252.151 628.418" stroke="#B56370" stroke-width="5.62556" stroke-linecap="round"/>
<path d="M242.695 586.393C249.64 590.496 262.423 610.238 265.809 620.013" stroke="#B56370" stroke-width="5.62556" stroke-linecap="round"/>
<path d="M513.76 579.038C525.699 586.819 537.445 594.912 549.429 602.618C550.46 603.281 559.018 610.208 561.795 609.448C570.027 607.197 576.29 601.2 585.416 600.992C592.062 600.84 600.059 605.861 605.946 604.895C614.763 603.448 620.28 592.604 629.329 590.747" stroke="#B56370" stroke-width="5.62556" stroke-linecap="round"/>
<path d="M15.7598 468.722C23.0999 474.621 30.1855 480.763 36.7724 487.633" stroke="#B56370" stroke-width="5.62556" stroke-linecap="round"/>
<path d="M786.924 855.354C794.047 855.354 797.913 859.002 803.692 863.751C815.563 873.507 825.624 884.11 835.071 895.358C840.58 901.916 839.947 905.451 848.326 909.696C862.981 917.12 884.765 910.06 896.473 921.261C912.555 936.646 927.791 954.067 944.78 968.393C947.704 970.859 948.672 971.831 946.457 975.127" stroke="#B56370" stroke-width="4.09877" stroke-linecap="round"/>
<path d="M923.573 945.619C922.589 946.605 932.697 939.14 934.382 937.659C945.37 928.008 964.21 915.803 970.784 902.633" stroke="#B56370" stroke-width="4.09877" stroke-linecap="round"/>
<path d="M988.646 884.772C1000.84 877.908 1015.09 876.213 1028.57 873.215" stroke="#B56370" stroke-width="4.09877" stroke-linecap="round"/>
<path d="M987.596 621.063C996.785 621.063 1004.52 625.82 1012.81 629.469" stroke="#B56370" stroke-width="5.62556" stroke-linecap="round"/>
<path d="M999.152 614.76C1008.36 614.76 1014.45 620.169 1022.27 625.266" stroke="#B56370" stroke-width="5.62556" stroke-linecap="round"/>
<path d="M1220.84 541.215C1232.38 530.25 1247.04 524.322 1259.96 515.225C1266.45 510.652 1280.03 513.479 1287.33 513.479C1313.62 513.479 1317.66 513.016 1336.67 495.09C1343.07 489.052 1349.82 475.839 1358.32 473.209C1370.65 469.394 1374.69 459.95 1382.63 448.76" stroke="#B56370" stroke-width="5.62556" stroke-linecap="round"/>
<path d="M1222.94 554.874C1229.76 547.799 1240.09 543.471 1248.15 538.063" stroke="#B56370" stroke-width="5.62556" stroke-linecap="round"/>
<path d="M1003.35 1027.66C1017.98 1034.7 1029.88 1046.76 1042.23 1057.08" stroke="#B56370" stroke-width="4.09877" stroke-linecap="round"/>
<path d="M1002.3 1025.63C1008.04 1025.14 1013.89 1027.09 1019.25 1028.86C1025.04 1030.77 1030.2 1033.53 1035.26 1036.81C1041.27 1040.68 1047.72 1044.83 1051.68 1050.77" stroke="#B56370" stroke-width="4.09877" stroke-linecap="round"/>
<path d="M1043.28 1032.91C1048.72 1038.72 1053.67 1044.98 1058.77 1051.08C1058.8 1051.12 1060.95 1053.53 1059.7 1052.7" stroke="#B56370" stroke-width="4.09877" stroke-linecap="round"/>
<path d="M1053.79 1030.81C1058.73 1036.01 1062.44 1042.5 1066.65 1048.28C1066.85 1048.54 1071.43 1054.04 1068.65 1050.81" stroke="#B56370" stroke-width="4.09877" stroke-linecap="round"/>
<path d="M1114.72 1016.1C1115.54 1024.29 1118.06 1032.29 1119.97 1040.27" stroke="#B56370" stroke-width="4.09877" stroke-linecap="round"/>
<path d="M1123.13 1025.56C1123.13 1030 1124.36 1034.28 1125.54 1038.5C1125.81 1039.43 1126.28 1040.34 1126.28 1041.32" stroke="#B56370" stroke-width="4.09877" stroke-linecap="round"/>
<path d="M1662.63 1021.88C1647.73 1023.24 1604.87 1037.77 1591.51 1041.79C1556.86 1052.21 1522.16 1062.49 1487.35 1072.37C1485.77 1072.82 1476.56 1074.18 1473.61 1076.65C1461.13 1087.08 1436.15 1079.1 1430.76 1097.62C1428.9 1104.01 1419.19 1122.91 1422.22 1129.35C1425.02 1135.33 1442.5 1139.67 1447.62 1142.56C1459.96 1149.5 1465.86 1152.33 1482.5 1167.81C1490.99 1175.7 1485.87 1178.54 1482.5 1181.14C1463.12 1196.06 1441.11 1201.01 1419.68 1212.63C1398.9 1223.9 1367.21 1209.47 1345.77 1222.01C1341.66 1224.42 1336.09 1232.99 1333.3 1235.91C1324.2 1245.43 1314.5 1254.25 1303.73 1261.86C1291.53 1270.49 1277.12 1275.83 1265.28 1284.91C1260.66 1288.45 1256.15 1290.88 1251.3 1294.52" stroke="#AF290D" stroke-width="5.62556" stroke-linecap="round"/>
<path d="M700.404 1062.99C722.124 1062.99 746.487 1060.5 767.535 1065.18C776.692 1067.22 748.075 1100.23 748.075 1105.43C748.075 1116.36 767.045 1123.44 775.826 1127.35C781.827 1130.02 769.539 1134.27 768.456 1134.5C755.472 1137.18 742.348 1132.68 729.421 1131.5C706.12 1129.38 686.817 1132.53 663.096 1135.65C649.048 1137.5 651.532 1157.48 649.048 1171.17C646.93 1182.85 647.785 1193.25 637.994 1198.85C623.558 1207.12 609.924 1214.65 593.547 1218.23C587.284 1219.6 586.606 1224.77 583.414 1230.22C570.974 1251.48 555.899 1263.45 541.076 1282.96" stroke="#AF290D" stroke-width="5.62556" stroke-linecap="round"/>
<path d="M777.694 1128.52C782.175 1138.97 784.473 1169.14 790.947 1178.32C792.98 1181.2 777.063 1194.16 775.341 1195.87C766.556 1204.59 765.589 1207.04 753.743 1203.92C745.256 1201.69 736.263 1198.88 728.638 1194.27C723.046 1190.89 719.06 1188.74 715.013 1182.16C710.966 1175.58 715.523 1144.21 717.052 1131.56" stroke="#AF290D" stroke-width="5.62556" stroke-linecap="round"/>
<path d="M712.329 1180C699.636 1190.55 681.215 1207.87 668.102 1219.67C658.691 1229.55 673.335 1234.03 681.215 1241.99" stroke="#AF290D" stroke-width="5.62556" stroke-linecap="round"/>
<path d="M-3.15234 1147.96C34.5772 1147.96 86.8028 1140.12 124.505 1136.99C136.567 1135.98 148.353 1133.69 160.584 1135.49C185.427 1139.15 172.918 1153.16 176.606 1174.93C177.471 1180.03 188.025 1200.44 182.024 1204.25C169.044 1212.49 152.007 1215.75 137.185 1218.85C127.256 1220.93 117.083 1226.09 106.869 1226.09C84.076 1226.09 74.0771 1226.88 59.6098 1243.8C41.5745 1264.89 78.0166 1254.34 88.1961 1264.5C92.0905 1268.38 14.1206 1313.35 10.5059 1316.06" stroke="#AF290D" stroke-width="5.62556" stroke-linecap="round"/>
<path d="M182.81 1202.06C181.487 1213.95 148.473 1247.53 160.288 1256.9C166.009 1261.43 173.46 1265.22 171.586 1273.64C171.334 1274.76 143.297 1278.76 139.975 1278.76C132.605 1278.76 131.394 1260.76 117.38 1264.75C109.55 1266.99 110.339 1235.66 110.339 1226.84" stroke="#AF290D" stroke-width="5.62556" stroke-linecap="round"/>
<path d="M110.317 1272.46C107.095 1276.08 103.272 1284.46 101.912 1291.37" stroke="#AF290D" stroke-width="5.62556" stroke-linecap="round"/>
<path d="M604.113 1072.84C616.918 1076.74 625.288 1089.62 632.48 1098.05" stroke="#AF290D" stroke-width="5.62556" stroke-linecap="round"/>
<path d="M632.48 1075.99C637.485 1083.28 642.329 1090.67 647.189 1098.05" stroke="#AF290D" stroke-width="5.62556" stroke-linecap="round"/>
<path d="M1476.14 1118.01C1476.62 1119.04 1488.38 1136.12 1497.15 1161.09" stroke="#AF290D" stroke-width="5.62556" stroke-linecap="round"/>
<path d="M1498.2 1125.37C1501.34 1137.37 1505.04 1149.27 1508.71 1161.09" stroke="#AF290D" stroke-width="5.62556" stroke-linecap="round"/>
<path d="M1517.11 1162.14C1518.38 1145.89 1527.3 1116.41 1533.92 1100.15" stroke="#AF290D" stroke-width="5.62556" stroke-linecap="round"/>
<path d="M537.186 1292.28C524.293 1292.28 508.512 1293.38 499.007 1289.38C488.172 1284.83 500.854 1276.72 510.357 1274.42C518.096 1272.54 536.122 1266.32 541.076 1280.23" stroke="#AF290D" stroke-width="5.62556" stroke-linecap="round"/>
<path d="M657.607 1095.95C654.895 1090.59 652.062 1079.92 658.264 1075.93C665.768 1071.1 666.614 1085.37 668.407 1086.58C670.011 1087.67 687.043 1076.33 688.985 1082.65C690.467 1087.47 684.498 1094.54 679.937 1095.95" stroke="#AF290D" stroke-width="5.62556" stroke-linecap="round"/>
<path d="M845.76 1051.82C853.846 1051.82 862.425 1059.39 866.772 1062.33" stroke="#A11C00" stroke-width="4.09877" stroke-linecap="round"/>
<path d="M851.012 1038.16C859.425 1039.71 877.393 1051.91 881.048 1054.53C884.538 1057.03 886.078 1054.6 889.908 1054.6C894.756 1054.6 897.452 1057.58 900.928 1060.22C903.386 1062.08 908.98 1060.92 911.948 1060.92" stroke="#A11C00" stroke-width="4.09877" stroke-linecap="round"/>
<path d="M1273.89 1316.58C1261.05 1296.39 1224.34 1282.71 1217.2 1280.42C1208.77 1277.7 1202.32 1272.1 1194.03 1269.21C1184.53 1265.89 1176.19 1265.54 1165.94 1266.88C1146.93 1269.37 1128.14 1281.97 1109.54 1282.95C1086.82 1284.16 1067.96 1267.73 1046.85 1267.73C1036.05 1267.73 1029.58 1271.78 1017.81 1275.24C996.235 1281.57 974.948 1277.24 952.924 1277.24" stroke="#AF290D" stroke-width="5.62556" stroke-linecap="round"/>
<path d="M946.621 1257.75C958.115 1261.34 966.133 1269.23 974.988 1277.71" stroke="#AF290D" stroke-width="5.62556" stroke-linecap="round"/>
<path d="M965.531 1235.68C976.39 1247.58 983.455 1261.73 986.544 1277.71" stroke="#AF290D" stroke-width="5.62556" stroke-linecap="round"/>
<path d="M846.92 1163.16C845.633 1149.45 855.928 1122.45 863.649 1109.61C873.429 1125.8 916.383 1129.49 936.114 1130.36C919.643 1136.11 915.766 1154.94 920.27 1156.63C937.642 1163.16 933.138 1177.68 927.348 1179.49C918.983 1182.1 911.005 1182.1 891.96 1182.1H891.96C868.153 1182.1 848.451 1179.47 846.92 1163.16Z" fill="#FB9450" stroke="black" stroke-width="5.62883"/>
<path d="M1013.71 1168.75C1005.98 1165.6 995.881 1135.97 991.799 1121.55C1026.35 1129.42 1048.73 1121.77 1055.61 1116.96C1058.19 1129.55 1064.85 1139.25 1067.86 1142.53C1086.04 1147.15 1089.86 1160.26 1089.48 1168.39C1089.4 1170.15 1087.89 1171.4 1086.13 1171.43C1063.3 1171.81 1021.11 1171.76 1013.71 1168.75Z" fill="#FB9450" stroke="black" stroke-width="5.62883"/>
<path d="M900.478 1128.52C894.94 1128.96 889.989 1140.37 888.188 1145.61C886.476 1150.58 890.47 1153.45 895.474 1150.34C902.057 1147.08 910.021 1147.25 917.203 1147.25" stroke="#030100" stroke-width="5.62883" stroke-linecap="round"/>
<path d="M915.857 1154.79C910.556 1156.49 904.608 1156.41 899.778 1159.5C896.463 1161.61 899.152 1163.88 903.32 1165.56C906.301 1166.77 908.045 1166.64 911.559 1164.69C914.101 1163.27 916.481 1159.77 919.304 1158.82" stroke="#030100" stroke-width="5.62883" stroke-linecap="round"/>
<path d="M1031.88 1126.42C1031.88 1130.33 1030.72 1139.2 1034.7 1141.63C1038.37 1143.88 1042.56 1140.68 1045.97 1139.23C1050.07 1137.49 1054.09 1136.87 1058.3 1135.9C1062.32 1134.97 1055.89 1138.13 1054.58 1139.43C1049.72 1144.31 1046.76 1146.83 1052.35 1151.68C1057.1 1155.79 1061.48 1146.18 1064.29 1143.26" stroke="#030100" stroke-width="5.62883" stroke-linecap="round"/>
<path d="M867.517 1111.97C841.983 1087.47 865.815 1057.89 880.922 1046.16C915.819 1020.74 995.315 980.081 1034.13 1020.74C1072.94 1061.41 1083.22 1089.17 1075.62 1098.94C1043.7 1139.99 994.088 1123.27 971.195 1111.97C964.252 1122.28 956.449 1127.05 952.418 1128.26C934.757 1133.04 893.051 1136.48 867.517 1111.97Z" fill="#895A4C"/>
<path d="M979.229 1095.68C976.944 1102.21 974.147 1107.59 971.195 1111.97M971.195 1111.97C964.252 1122.28 956.449 1127.05 952.418 1128.26C934.757 1133.04 893.051 1136.48 867.517 1111.97C841.983 1087.47 865.815 1057.89 880.922 1046.16C915.819 1020.74 995.315 980.081 1034.13 1020.74C1072.94 1061.41 1083.22 1089.17 1075.62 1098.94C1043.7 1139.99 994.088 1123.27 971.195 1111.97Z" stroke="black" stroke-width="5.62883"/>
<path d="M859.605 1029.93L1195.43 977.228L1203.25 979.788C1207.09 981.048 1208.39 985.832 1205.71 988.864L1199.26 996.167L862.396 1048.83C859.278 1049.32 856.369 1047.15 855.948 1044.02L854.899 1036.24C854.491 1033.21 856.581 1030.4 859.605 1029.93Z" fill="#B8A1A9" stroke="black" stroke-width="5.62883"/>
<path d="M915.67 863.781C915.67 861.174 921.632 857.915 924.613 856.611C938.665 854.656 990.405 867.04 993.598 876.165C994.411 878.485 994.397 880.089 993.598 881.266C1012.51 883.261 1021.49 914.762 1023.62 930.262C1040.99 943.819 1047.47 961.982 1048.53 969.369C1023.49 968.848 1012.12 982.622 1009.57 989.574C1005.99 1009.91 972.306 1011.08 955.912 1009.13C953.57 1008.48 947.225 1005.87 940.582 1000.65C933.938 995.44 930.149 986.315 929.084 982.405L922.058 977.842C897.529 972.107 879.474 983.926 876.706 992.181C860.354 981.753 856.266 952.581 856.266 935.477C856.266 885.941 892.888 870.516 915.67 868.343V863.781Z" fill="#DBDEF4"/>
<path d="M915.67 868.343C926.316 874.861 951.281 889.833 967.409 887.897C978.268 886.593 991.258 884.717 993.598 881.266M915.67 868.343C915.67 866.707 915.67 865.022 915.67 863.781C915.67 861.174 921.632 857.915 924.613 856.611C938.665 854.656 990.405 867.04 993.598 876.165C994.411 878.485 994.397 880.089 993.598 881.266M915.67 868.343C915.67 870.142 915.67 867.319 915.67 868.343ZM915.67 868.343C892.888 870.516 856.266 885.941 856.266 935.477C856.266 952.581 860.354 981.753 876.706 992.181C879.474 983.926 897.529 972.107 922.058 977.842M922.058 977.842C916.735 968.066 904.811 938.084 915.67 926.352C908.857 931.131 908.771 953.857 922.058 977.842ZM922.058 977.842L929.084 982.405C930.149 986.315 933.938 995.44 940.582 1000.65C947.225 1005.87 953.57 1008.48 955.912 1009.13C972.306 1011.08 1005.99 1009.91 1009.57 989.574C1012.12 982.622 1023.49 968.848 1048.53 969.369C1047.47 961.982 1040.99 943.819 1023.62 930.262C1021.49 914.762 1012.51 883.261 993.598 881.266" stroke="black" stroke-width="5.62883"/>
<path d="M1001.25 918.393C1006.34 932.481 1014.89 965.073 1001.25 1000.34" stroke="black" stroke-width="5.62883"/>
<path d="M1005.26 801.36C1015 816.923 1001.19 828.164 993.072 831.838L935.999 855.832C932.579 856.264 925.354 856.87 923.815 855.832C922.276 854.794 916.761 850.212 914.196 848.05C911.203 845.24 905.86 834.432 908.425 813.681C910.99 792.93 933.434 788.174 944.336 788.39C955.109 779.052 971.91 790.984 978.964 798.118C991.79 796.821 987.942 805.251 995.637 807.196C1001.79 808.753 1004.62 803.954 1005.26 801.36Z" fill="#272020" stroke="black" stroke-width="5.62883"/>
<path d="M921.477 841.419C920.443 831.917 930.957 832.181 936.343 833.5C948.236 843.003 949.916 835.26 949.27 830.201C948.408 827.781 948.882 821.754 957.672 817.003C966.462 812.252 976.416 815.024 980.294 817.003C987.404 820.633 991.411 826.902 994.514 832.181C998.392 838.78 994.514 845.378 997.745 848.678C1000.98 851.977 1001.07 860.556 997.745 863.195C991.928 867.815 982.233 871.114 964.136 871.114C946.548 871.114 936.343 861.216 936.343 854.617C931.819 854.177 922.511 850.921 921.477 841.419Z" fill="#272020" stroke="black" stroke-width="5.62883"/>
<path d="M882.606 1018.6C863.235 1010.31 870.287 997.439 876.234 992.04C889.488 965.087 917.016 974.331 929.123 982.321L934.221 993.336L953.974 1013.42C953.974 1016.23 953.337 1023.14 953.337 1030.91C953.337 1038.69 943.991 1042.79 939.318 1043.87L938.566 1049.61C938.254 1051.99 936.463 1053.91 934.107 1054.39L928.138 1055.61C924.634 1056.32 921.115 1054.46 919.726 1051.17L919.103 1049.69C920.084 1055.25 915.63 1056.83 912.555 1056.83C888.086 1059.94 882.394 1032.64 882.606 1018.6Z" fill="#BD7AAD"/>
<path d="M940.593 1030.91L939.318 1043.87M939.318 1043.87L938.566 1049.61C938.254 1051.99 936.463 1053.91 934.107 1054.39L928.138 1055.61C924.634 1056.32 921.115 1054.46 919.726 1051.17L916.379 1043.23C923.006 1054.11 916.591 1056.83 912.555 1056.83C888.086 1059.94 882.394 1032.64 882.606 1018.6C863.235 1010.31 870.287 997.439 876.234 992.04C889.488 965.087 917.016 974.331 929.123 982.321L934.221 993.336L953.974 1013.42C953.974 1016.23 953.337 1023.14 953.337 1030.91C953.337 1038.69 943.991 1042.79 939.318 1043.87Z" stroke="black" stroke-width="5.62883"/>
<path d="M1061.82 973.524C1058.75 969.331 1054.15 970.903 1047.76 969.593C1040.3 968.064 1022.7 967.365 1011.96 982.041C1007.16 988.594 1005.44 1001.7 999.813 1004.32C994.187 1006.94 1025.92 1000.54 1041.05 997.259C1039.85 995.783 1040.82 993.565 1042.72 993.452L1043.11 993.429L1044.62 993.524C1046.38 993.636 1047.76 995.098 1047.76 996.865C1047.76 998.979 1046.43 1000.87 1044.44 1001.59L1036.89 1004.32L1031.6 1006.23C1028.33 1007.41 1026.3 1010.69 1026.7 1014.14L1026.79 1014.93C1027.09 1017.54 1029.15 1019.59 1031.77 1019.88L1045.2 1021.35L1061.18 1015.44C1065.29 1013.92 1067.66 1009.75 1067.53 1005.37C1067.33 998.745 1068.99 998.866 1069.49 995.801C1070.09 992.145 1065.66 978.766 1061.82 973.524Z" fill="#BD7AAD" stroke="black" stroke-width="5.62883"/>
<path d="M1064.57 1018.2C1065.21 1020.76 1072.24 1033.52 1068.41 1037.35C1065.05 1040.71 1050.89 1046.02 1046.58 1029.69L1048.59 1037.35C1044.97 1040.55 1035.68 1045.01 1027.49 1037.35C1024.72 1038.42 1017.52 1039.91 1010.87 1037.35L1004.48 1043.74C1000.65 1045.01 992.207 1045.52 989.139 1037.35C986.071 1029.18 998.089 1028.21 1004.48 1028.74C1004.34 1027.87 1004.32 1027.33 1004.39 1026.72C1004.66 1024.29 1006.77 1022.44 1009.2 1022.09L1012.65 1021.6C1013.58 1021.46 1014.53 1021.57 1015.42 1021.9L1019.18 1023.31L1045.39 1021.39L1064.57 1018.2Z" fill="#BD7AAD"/>
<path d="M1045.39 1021.39C1046.67 1047.57 1064.57 1041.18 1068.41 1037.35C1072.24 1033.52 1065.21 1020.76 1064.57 1018.2L1045.39 1021.39ZM1045.39 1021.39L1019.18 1023.31M1045.39 1021.39L1046.58 1029.69L1048.59 1037.35C1044.97 1040.55 1035.68 1045.01 1027.49 1037.35M1027.49 1037.35C1019.31 1029.69 1018.54 1024.8 1019.18 1023.31M1027.49 1037.35L1019.18 1023.31M1027.49 1037.35C1024.72 1038.42 1017.52 1039.91 1010.87 1037.35M1019.18 1023.31L1015.42 1021.9C1014.53 1021.57 1013.58 1021.46 1012.65 1021.6L1009.2 1022.09C1006.77 1022.44 1004.66 1024.29 1004.39 1026.72C1004.32 1027.33 1004.34 1027.87 1004.48 1028.74M1010.87 1037.35L1004.48 1043.74C1000.65 1045.01 992.207 1045.52 989.139 1037.35C986.071 1029.18 998.089 1028.21 1004.48 1028.74M1010.87 1037.35C1006.75 1035.77 1005.03 1032.13 1004.48 1028.74" stroke="black" stroke-width="5.62883"/>
<path d="M874.127 993.506C874.604 998.424 889.919 1011.28 889.919 1004.91C889.919 1000.45 897.652 994.156 901.031 991.937C903.875 990.071 918.638 983.494 932.962 991.937" stroke="#030100" stroke-width="5.62883" stroke-linecap="round"/>
<path d="M890.938 947.815C893.577 947.815 895.816 947.687 898.292 948.861" stroke="#030100" stroke-width="5.62883" stroke-linecap="round"/>
<path d="M883.132 1047.51C877.898 1058.34 876.953 1069.71 877.365 1081.63C877.627 1089.22 893.517 1092.23 898.27 1093.35C912.06 1096.59 920.785 1083.36 926.223 1072.11C932.888 1058.33 951.067 1056.93 963.108 1050.08C968.524 1047 973.483 1042.86 978.566 1039.36C981.047 1037.65 984.537 1034.83 985.494 1031.86" stroke="#030100" stroke-width="5.62883" stroke-linecap="round"/>
<path d="M887.477 1045.52C885.486 1045.78 884.697 1060.02 884.642 1061.59C884.532 1064.68 885.432 1066.04 887.478 1068.14C890.884 1071.64 898.395 1071.79 903.075 1071.79C911.499 1071.79 913 1062.83 913 1055.76" stroke="#030100" stroke-width="5.62883" stroke-linecap="round"/>
<path d="M894.09 1063.38V1062.33" stroke="#030100" stroke-width="5.62883" stroke-linecap="round"/>
<path d="M999.153 921.545C999.153 910.622 993.565 894.609 988.646 884.772" stroke="#030100" stroke-width="5.62883" stroke-linecap="round"/>
<path d="M943.469 941.506C949.751 930.979 987.352 910.66 1003.35 926.064" stroke="#030100" stroke-width="5.62883" stroke-linecap="round"/>
<ellipse cx="7.35443" cy="9.98101" rx="7.35443" ry="9.98101" transform="matrix(0.622679 -0.782477 0.765687 0.643213 966.582 842.747)" fill="white"/>
<path d="M965.531 835.393C970.422 835.992 985.671 834.074 987.348 843.184C989.444 854.571 977.392 847.979 980.536 835.393" stroke="black" stroke-width="5.62883"/>
<path d="M878.33 883.722C897.569 883.722 933.448 921.608 940.477 937.651C942.067 941.281 949.872 995.681 949.872 999.671C949.872 999.671 951.01 1008.16 955.041 1009.2C962.095 1011.29 964.409 1012.96 970.944 1011.07C981.235 1011.07 989.861 1006.41 998.073 1004.52C1005.59 1002.79 1008.91 983.603 1010.14 978.055C1013.18 964.333 1011.05 950.344 1007.86 937.084C1006.51 931.489 1005.5 925.234 1003.33 919.873C1000.97 914.075 1011.89 909.901 1014.91 905.719" stroke="#030100" stroke-width="5.62883" stroke-linecap="round"/>
<path d="M986.732 931.997C984.791 935.939 975.513 928.254 983.313 925.747C984.802 925.747 985.124 925.747 986.732 926.64C988.132 928.189 987.602 930.229 986.732 931.997Z" stroke="black" stroke-width="5.62883" stroke-linecap="round"/>
<path d="M963.331 902.456C944.503 903.826 962.24 908.649 971.891 910.365C991.65 913.203 990.829 906.275 988.536 904.19C984.777 900.773 979.06 901.311 963.331 902.456Z" stroke="black" stroke-width="5.62883" stroke-linecap="round"/>
<path d="M974.988 888.975C975.43 892.267 977.598 895.2 979.191 898.43" stroke="black" stroke-width="5.62883" stroke-linecap="round"/>
<path d="M957.127 888.975C957.568 892.267 959.737 895.2 961.329 898.43" stroke="black" stroke-width="5.62883" stroke-linecap="round"/>
<path d="M981.291 885.822C981.55 889.323 985.608 898.146 986.544 901.582" stroke="black" stroke-width="5.62883" stroke-linecap="round"/>
<path d="M966.582 887.924C966.997 891.392 969.287 898.179 970.785 901.582" stroke="black" stroke-width="5.62883" stroke-linecap="round"/>
<path d="M988.646 980.38C987.247 957.482 985.83 952.472 984.444 931" stroke="black" stroke-width="5.62883" stroke-linecap="round"/>
<path d="M1218.65 971.001C1215.84 974.716 1213.96 976.4 1209.28 982.147C1211.87 983.198 1218.89 986.949 1223.25 988.65C1228.01 990.507 1234.74 996.116 1236.16 993.225C1241.13 986.792 1244.54 982.506 1250.61 979.208C1252.83 978 1256.76 977.752 1252.69 977.036C1249.98 976.557 1246.98 975.991 1244.4 975.018C1238.43 972.773 1231.64 969.774 1226.82 965.527C1225.1 964.004 1224.92 962.677 1223.25 964.338C1221.9 965.676 1220.61 968.397 1218.65 971.001Z" fill="#FDE482" stroke="black" stroke-width="5.62883" stroke-linecap="round"/>
<path d="M1196.72 975.483C1196.72 971.746 1195.46 966.862 1190.32 967.919C1188.19 968.359 1187.16 971.794 1186.77 973.401C1184.98 980.738 1184.53 988.594 1185.97 995.988C1186.71 999.785 1189.51 1011.67 1196.21 1006.35C1198.93 1004.19 1198.77 1000.43 1198.77 997.306" stroke="black" stroke-width="5.62883" stroke-linecap="round"/>
<path d="M1179.58 977.337C1179.58 975.345 1179.92 972.553 1178.48 971.035C1177.76 970.275 1175.73 969.253 1174.94 970.361C1173.28 972.69 1173.29 977.269 1173.05 980.034C1172.62 984.801 1172.51 989.456 1172.51 994.245C1172.51 997.804 1172.61 1006.79 1177.13 1007.65C1180.68 1008.33 1180.3 1000.74 1180.91 998.81" stroke="black" stroke-width="5.62883" stroke-linecap="round"/>
<path d="M1224.09 966.722C1224.09 969.9 1223.53 974.255 1225.04 977.228" stroke="black" stroke-width="5.62883" stroke-linecap="round"/>
<path d="M954.144 809.098C968.927 834.129 947.984 852.208 935.664 858.118L849.104 896.708C843.917 897.403 844.709 906.193 842.375 904.524C840.04 902.855 816.52 894.212 812.63 890.735C808.091 886.215 803.392 862.29 807.282 828.914C811.173 795.539 842.375 787.313 859.345 785.416C883.424 782.724 903.569 792.41 914.267 803.883C933.719 801.797 927.884 815.356 939.555 818.484C948.892 820.988 953.171 813.27 954.144 809.098Z" fill="#FAE684" stroke="black" stroke-width="5.62883"/>
<path d="M753.408 1194.45C752.197 1181.33 761.886 1155.51 769.153 1143.23C778.358 1158.72 818.784 1162.24 837.355 1163.08C821.853 1168.57 818.204 1186.59 822.443 1188.21C838.793 1194.45 834.554 1208.34 829.105 1210.07C821.232 1212.57 813.723 1212.57 795.798 1212.57H795.798C773.392 1212.57 754.848 1210.05 753.408 1194.45Z" fill="#FAE684" stroke="black" stroke-width="5.62883"/>
<path d="M911.674 1201.43C904.355 1198.4 894.8 1169.91 890.938 1156.05C923.628 1163.61 944.812 1156.26 951.318 1151.63C953.757 1163.74 960.06 1173.06 962.906 1176.22C980.015 1180.64 983.688 1193.13 983.375 1200.96C983.305 1202.72 981.793 1203.98 980.032 1204.01C958.387 1204.37 918.656 1204.32 911.674 1201.43Z" fill="#FAE684" stroke="black" stroke-width="5.62883"/>
<path d="M805.323 1162.14C799.936 1162.59 795.119 1174.11 793.366 1179.39C791.701 1184.42 805.598 1174.73 810.467 1171.59C816.872 1168.3 814.608 1181.05 821.596 1181.05" stroke="#030100" stroke-width="5.62883" stroke-linecap="round"/>
<path d="M819.371 1185.25C814.335 1186.95 808.684 1186.88 804.096 1189.96C800.947 1192.08 803.502 1194.35 807.461 1196.03C810.293 1197.24 811.95 1197.11 815.288 1195.15C817.703 1193.74 819.964 1190.24 822.646 1189.29" stroke="#030100" stroke-width="5.62883" stroke-linecap="round"/>
<path d="M928.911 1158.99C928.911 1162.74 927.794 1171.26 931.638 1173.59C935.194 1175.75 938.588 1163.53 941.893 1162.14C945.859 1160.47 950.409 1169.02 954.482 1168.09C958.372 1167.19 952.143 1170.23 950.883 1171.48C946.179 1176.16 943.308 1178.58 948.724 1183.24C953.314 1187.18 957.56 1177.96 960.279 1175.15" stroke="#030100" stroke-width="5.62883" stroke-linecap="round"/>
<path d="M772.427 1145.35C748.103 1121.85 770.805 1093.48 785.197 1082.23C818.44 1057.86 894.169 1018.86 931.141 1057.86C968.114 1096.86 977.907 1123.48 970.668 1132.85C940.263 1172.22 892.999 1156.18 871.192 1145.35C864.578 1155.23 857.145 1159.8 853.304 1160.97C836.48 1165.56 796.751 1168.85 772.427 1145.35Z" fill="#895A4C"/>
<path d="M878.845 1129.73C876.668 1135.99 874.004 1141.15 871.192 1145.35M871.192 1145.35C864.578 1155.23 857.145 1159.8 853.304 1160.97C836.48 1165.56 796.751 1168.85 772.427 1145.35C748.103 1121.85 770.805 1093.48 785.197 1082.23C818.44 1057.86 894.169 1018.86 931.141 1057.86C968.114 1096.86 977.907 1123.48 970.668 1132.85C940.263 1172.22 892.999 1156.18 871.192 1145.35Z" stroke="black" stroke-width="5.62883"/>
<path d="M819.243 909.705C819.243 907.205 824.911 904.08 827.745 902.83C841.107 900.955 890.302 912.83 893.338 921.58C894.111 923.805 894.097 925.343 893.338 926.472C911.316 928.385 919.859 958.591 921.884 973.455C938.403 986.455 944.558 1003.87 945.57 1010.95C921.762 1010.45 910.951 1023.66 908.522 1030.33C905.121 1049.83 873.094 1050.95 857.505 1049.08C855.278 1048.45 849.245 1045.95 842.929 1040.95C836.613 1035.95 833.009 1027.2 831.997 1023.45L825.316 1019.08C801.994 1013.58 784.827 1024.91 782.195 1032.83C766.647 1022.83 762.76 994.856 762.76 978.455C762.76 930.955 797.581 916.163 819.243 914.08V909.705Z" fill="#FB9450"/>
<path d="M819.243 914.08C829.365 920.33 853.102 934.687 868.437 932.83C878.762 931.58 891.113 929.781 893.338 926.472M819.243 914.08C819.243 912.512 819.243 910.896 819.243 909.705C819.243 907.205 824.911 904.08 827.745 902.83C841.107 900.955 890.302 912.83 893.338 921.58C894.111 923.805 894.097 925.343 893.338 926.472M819.243 914.08C819.243 915.805 819.243 913.098 819.243 914.08ZM819.243 914.08C797.581 916.163 762.76 930.955 762.76 978.455C762.76 994.856 766.647 1022.83 782.195 1032.83C784.827 1024.91 801.994 1013.58 825.316 1019.08M825.316 1019.08C820.255 1009.7 808.918 980.955 819.243 969.705C812.764 974.288 812.683 996.079 825.316 1019.08ZM825.316 1019.08L831.997 1023.45C833.009 1027.2 836.613 1035.95 842.929 1040.95C849.245 1045.95 855.278 1048.45 857.505 1049.08C873.094 1050.95 905.121 1049.83 908.522 1030.33C910.951 1023.66 921.762 1010.45 945.57 1010.95C944.558 1003.87 938.403 986.455 921.884 973.455C919.859 958.591 911.316 928.385 893.338 926.472" stroke="black" stroke-width="5.62883"/>
<path d="M900.393 962.519C905.479 976.065 914.026 1007.4 900.393 1041.32" stroke="black" stroke-width="5.62883"/>
<path d="M824.815 888.246C823.836 879.272 833.789 879.521 838.888 880.767C850.147 889.742 851.737 882.429 851.126 877.651C850.31 875.366 850.758 869.674 859.08 865.187C867.401 860.699 876.824 863.317 880.495 865.187C887.226 868.614 891.019 874.535 893.956 879.521C897.627 885.753 893.956 891.985 897.016 895.102C900.075 898.218 900.162 906.32 897.016 908.813C891.509 913.175 882.331 916.291 865.198 916.291C848.549 916.291 838.888 906.943 838.888 900.711C834.605 900.295 825.794 897.22 824.815 888.246Z" fill="#DBDEF4" stroke="black" stroke-width="5.62883"/>
<path d="M787.415 1056.84C769.013 1048.86 775.712 1036.48 781.362 1031.28C793.953 1005.35 820.105 1014.24 831.606 1021.93L836.449 1032.53L855.215 1051.85C855.215 1054.55 854.61 1061.2 854.61 1068.68C854.61 1076.16 845.731 1080.11 841.292 1081.15L840.597 1086.52C840.288 1088.9 838.503 1090.82 836.15 1091.31L831.011 1092.36C827.49 1093.09 823.95 1091.22 822.569 1087.9L822.088 1086.74C823.019 1092.09 818.788 1093.61 815.867 1093.61C792.622 1096.6 787.214 1070.34 787.415 1056.84Z" fill="#895A4C"/>
<path d="M842.503 1068.68L841.292 1081.15M841.292 1081.15L840.597 1086.52C840.288 1088.9 838.503 1090.82 836.15 1091.31L831.011 1092.36C827.49 1093.09 823.95 1091.22 822.569 1087.9L819.499 1080.52C825.795 1090.99 819.701 1093.61 815.867 1093.61C792.622 1096.6 787.214 1070.34 787.415 1056.84C769.013 1048.86 775.712 1036.48 781.362 1031.28C793.953 1005.35 820.105 1014.24 831.606 1021.93L836.449 1032.53L855.215 1051.85C855.215 1054.55 854.61 1061.2 854.61 1068.68C854.61 1076.16 845.731 1080.11 841.292 1081.15Z" stroke="black" stroke-width="5.62883"/>
<path d="M960.909 1043.42C961.503 1045.83 968.04 1057.88 964.474 1061.49C961.351 1064.66 948.195 1069.67 944.182 1054.26L946.053 1061.49C942.686 1064.5 934.05 1068.72 926.444 1061.49C923.869 1062.49 909.53 1063.31 905.646 1047.63L912.522 1046.64C913.469 1046.5 914.435 1046.61 915.329 1046.95L918.719 1048.24L943.082 1046.43L960.909 1043.42Z" fill="#895A4C"/>
<path d="M943.082 1046.43C944.271 1071.13 960.909 1065.1 964.474 1061.49C968.04 1057.88 961.503 1045.83 960.909 1043.42L943.082 1046.43ZM943.082 1046.43L918.719 1048.24M943.082 1046.43L944.182 1054.26L946.053 1061.49C942.686 1064.5 934.05 1068.72 926.444 1061.49M926.444 1061.49C918.838 1054.26 918.125 1049.64 918.719 1048.24M926.444 1061.49L918.719 1048.24M926.444 1061.49C923.869 1062.49 909.53 1063.31 905.646 1047.63L912.522 1046.64C913.469 1046.5 914.435 1046.61 915.329 1046.95L918.719 1048.24" stroke="black" stroke-width="5.62883"/>
<path d="M964.529 1011.16C961.626 1007.13 957.273 1008.64 951.226 1007.39C944.171 1005.92 927.522 1005.25 917.363 1019.34C912.827 1025.63 910.464 1037.01 905.873 1040.72C903.202 1042.88 924.597 1057.08 944.884 1033.95C943.739 1032.52 944.679 1030.4 946.503 1030.29L946.831 1030.27L948.209 1030.36C949.905 1030.47 951.226 1031.87 951.226 1033.57C951.226 1035.6 949.961 1037.41 948.057 1038.11L940.946 1040.72L936.199 1042.46C932.951 1043.66 930.939 1046.92 931.328 1050.35L931.37 1050.72C931.666 1053.34 933.728 1055.4 936.34 1055.69L948.807 1057.08L963.605 1051.52C967.687 1049.98 970.021 1045.84 969.922 1041.48C969.783 1035.37 971.32 1035.45 971.785 1032.55C972.348 1029.04 968.157 1016.19 964.529 1011.16Z" fill="#895A4C" stroke="black" stroke-width="5.62883"/>
<path d="M886.153 897.406C888.684 894.229 886.952 888.478 882.285 884.561C877.619 880.644 871.784 880.045 869.254 883.222C866.723 886.399 868.455 892.15 873.122 896.067C877.788 899.984 883.623 900.583 886.153 897.406Z" fill="white"/>
<path d="M864.672 886.15C878.523 879.2 887.786 879.912 887.786 890.624C887.786 901.337 876.577 895.802 880.026 883.627" stroke="black" stroke-width="5.62883"/>
<path d="M785.875 927.848C824.245 946.618 831.383 969.857 841.199 985.946C841.199 991.446 851.014 1042.19 851.014 1047.62" stroke="black" stroke-width="5.62883" stroke-linecap="round"/>
<path d="M901.452 966.722C901.033 966.671 916.793 953.598 917.203 953.063" stroke="black" stroke-width="5.62883" stroke-linecap="round"/>
<path d="M871.087 933.102C871.087 936.464 872.635 940.158 873.431 943.285C873.587 943.897 871.977 943.412 871.302 943.55C870.178 943.779 869.83 945.539 869.947 946.591C870.232 949.147 874.928 953.05 876.506 949.607C877.291 947.894 877.28 946.262 877.28 944.395C877.28 942.58 874.999 943.107 873.797 942.657" stroke="black" stroke-width="5.62883" stroke-linecap="round"/>
<path d="M841.559 985.633C846.486 983.541 867.167 971.893 872.297 970.527C881.306 966.75 894.881 965.671 901.445 965.671" stroke="black" stroke-width="5.62883" stroke-linecap="round"/>
<path d="M877.515 971.352C877.477 971.064 875.69 974.361 876.392 975.892C876.944 977.098 880.074 977.663 881.133 976.838C882.484 975.785 883.583 974.915 883.583 973.055C883.583 971.839 880.605 970.112 879.942 971.352" stroke="black" stroke-width="5.62883" stroke-linecap="round"/>
<path d="M874.127 991.937C879.25 989.747 885.342 988.266 890.937 987.734" stroke="black" stroke-width="5.62883" stroke-linecap="round"/>
<path d="M1288.33 847.43C1236.74 819.122 1182.44 843.557 1148.93 857.018C1147.48 857.598 1146.35 858.738 1145.78 860.185L1135.31 886.756L1121.79 920.848C1121.52 921.53 1120.87 921.991 1120.14 922.029L1077.83 924.231C1076.76 924.287 1075.95 925.236 1076.06 926.308L1078.47 948.412L1081.81 977.389C1081.94 978.505 1083.01 979.258 1084.1 979.001L1119.9 970.569C1120.74 970.37 1121.34 969.614 1121.34 968.743V958.417L1157.45 955.131C1158.18 955.065 1158.8 954.592 1159.05 953.912C1162.15 945.65 1168.54 930.546 1168.54 913.847L1173.78 970.229L1121.34 1011.22C1124.67 1017.61 1129.34 1033.04 1121.34 1043.61C1111.35 1056.84 1158.64 1072.04 1144.65 1089.23C1133.46 1102.98 1124.45 1109.95 1121.34 1111.71H1168.54L1183.4 1082.51L1194.89 1067.28C1195.14 1066.96 1195.27 1066.56 1195.27 1066.15V1037.66H1223.3C1223.53 1047.36 1226.18 1056.04 1253.35 1074.02C1280.53 1092.01 1259.2 1108.62 1250.54 1111.71H1292.7L1297.84 1082.51V1037.66C1297.84 1030.95 1305.93 989.44 1292.7 970.229C1304.52 966.096 1313.69 970.229 1321.56 958.417C1326.29 951.317 1322.7 937.393 1318.48 929.9C1329.43 884.283 1317.61 863.497 1288.33 847.43Z" fill="#C181B0"/>
<path d="M1203.26 955.023L1212.15 963.846C1212.43 964.127 1212.8 964.318 1213.19 964.338C1221.1 964.737 1239.55 952.429 1261.87 964.279C1275.04 971.269 1282.64 973.745 1292.7 970.229M1203.26 955.023L1223.62 951.425M1203.26 955.023L1195.27 941.139M1195.27 941.139H1219.25M1195.27 941.139V931.777C1195.27 930.74 1196.11 929.9 1197.15 929.9H1225.36C1226.4 929.9 1227.24 929.06 1227.24 928.024V905.982C1231.49 898.257 1244.61 901.472 1244.61 909.406C1244.61 917.339 1245.59 927.681 1258.48 932.373C1277.94 932.373 1270.07 916.32 1266.47 886.756M1121.34 958.417V968.743C1121.34 969.614 1120.74 970.37 1119.9 970.569L1084.1 979.001C1083.01 979.258 1081.94 978.505 1081.81 977.389L1078.47 948.412L1076.06 926.308C1075.95 925.236 1076.76 924.287 1077.83 924.231L1120.14 922.029C1120.87 921.991 1121.52 921.53 1121.79 920.848L1135.31 886.756L1145.78 860.185C1146.35 858.738 1147.48 857.598 1148.93 857.018C1182.44 843.557 1236.74 819.122 1288.33 847.43C1317.61 863.497 1329.43 884.283 1318.48 929.9C1322.7 937.393 1326.29 951.317 1321.56 958.417C1313.69 970.229 1304.52 966.096 1292.7 970.229M1121.34 958.417H1094.7M1121.34 958.417V948.412M1121.34 958.417L1157.45 955.131C1158.18 955.065 1158.8 954.592 1159.05 953.912C1162.15 945.65 1168.54 930.546 1168.54 913.847M1121.34 948.412L1097.71 945.308M1121.34 948.412V942.384C1121.34 941.63 1120.89 940.949 1120.2 940.656L1094.7 929.9M1168.54 892.873C1168.54 901.612 1168.54 905.982 1168.54 913.847M1168.54 913.847L1173.78 970.229L1121.34 1011.22C1124.67 1017.61 1129.34 1033.04 1121.34 1043.61C1111.35 1056.84 1158.64 1072.04 1144.65 1089.23C1133.46 1102.98 1124.45 1109.95 1121.34 1111.71H1168.54L1183.4 1082.51L1194.89 1067.28C1195.14 1066.96 1195.27 1066.56 1195.27 1066.15V1037.66H1223.3C1223.53 1047.36 1226.18 1056.04 1253.35 1074.02C1280.53 1092.01 1259.2 1108.62 1250.54 1111.71H1292.7L1297.84 1082.51V1037.66C1297.84 1030.95 1305.93 989.44 1292.7 970.229" stroke="black" stroke-width="5.62883"/>
<path d="M1187.75 791.745C1147.62 790.956 1171.03 758.177 1187.75 741.886C1160.34 756.696 1121.68 795.343 1163.88 812.325C1206.08 829.307 1258.08 820.58 1277.22 807.543C1285.93 801.606 1293.61 791.745 1290.54 777.106C1286.94 759.978 1269.29 745.67 1257.05 741.886C1278.98 775.455 1271.35 786.201 1257.05 789.356C1246.3 791.727 1227.88 792.535 1187.75 791.745Z" fill="#D9D9D9" stroke="black" stroke-width="5.62883"/>
<path d="M1244.23 791.266H1184.44C1181.33 791.266 1178.81 793.786 1178.81 796.894V873.89C1178.81 876.999 1181.33 879.519 1184.44 879.519H1215.28C1217.63 879.519 1219.73 878.065 1220.55 875.871L1249.5 798.875C1250.88 795.195 1248.16 791.266 1244.23 791.266Z" fill="#C181B0" stroke="black" stroke-width="5.62883"/>
<ellipse cx="4.72785" cy="7.87975" rx="4.72785" ry="7.87975" transform="matrix(0.634084 0.773264 -0.790232 0.612808 1223.99 813.329)" fill="white"/>
<path d="M1213.48 841.696C1212.69 835.366 1213.55 821.568 1223.31 817.017C1235.52 811.328 1231.7 828.296 1216.58 827.694" stroke="black" stroke-width="5.62883"/>
<path d="M1164.24 837.493C1146.35 837.493 1164.43 818.097 1177.76 816.48V829.411C1177.76 833.991 1177.76 837.493 1164.24 837.493Z" fill="#C181B0" stroke="black" stroke-width="5.62883"/>
<path d="M1262.28 836.97C1287.56 835.97 1266.65 815.927 1246.59 816.465L1241.03 828.686L1241.02 828.705C1239.23 832.871 1237.04 837.968 1262.28 836.97Z" fill="#C181B0" stroke="black" stroke-width="5.62883"/>
<path d="M1148.67 933.118C1165.86 928.488 1212.87 914.627 1226.35 913.249C1227.38 913.144 1228.19 913.979 1228.19 915.015V933.487H1197.42C1191.08 939.149 1200.05 954.72 1205.33 961.798C1197.42 962.977 1178.42 963.567 1165.76 956.489C1153.69 949.741 1147.85 944.601 1147.33 934.934C1147.29 934.084 1147.85 933.339 1148.67 933.118Z" fill="#895A4C" stroke="black" stroke-width="5.62883"/>
<path d="M1107.37 935.202L1093.71 893.177" stroke="black" stroke-width="5.62883"/>
<path d="M1112.62 939.405L1105.27 890.025" stroke="black" stroke-width="5.62883"/>
<path d="M1175.66 972.062V961.468C1191.68 964.999 1203.24 962.939 1207.01 961.468L1213.24 966.995C1213.7 967.404 1214.34 967.561 1214.93 967.414L1239.23 961.468C1240.39 974.417 1240.08 1001.59 1233.14 1010.03C1224.43 1020.62 1223.73 1031.21 1223.73 1038.28L1192.67 1039.16C1191.61 1039.19 1190.75 1038.33 1190.69 1037.28C1190.05 1025.88 1183.72 1021.26 1177.62 1020.67C1176.55 1020.57 1175.66 1019.73 1175.66 1018.66V972.062Z" fill="#FB9450" stroke="black" stroke-width="5.62883"/>
<path d="M1225.04 910.475L1197.95 917.4L1177.85 922.594C1176.52 906.744 1190.58 904.33 1198.21 905.141C1199.46 902.537 1201.78 900.285 1205.81 899.221C1218.92 895.759 1222.71 904.415 1225.04 910.475Z" fill="#FAE684"/>
<path d="M1197.95 917.4L1225.04 910.475C1222.71 904.415 1218.92 895.759 1205.81 899.221C1194.92 902.098 1196.49 913.649 1197.95 917.4ZM1197.95 917.4L1177.85 922.594C1176.45 905.974 1191.99 904.127 1199.27 905.281" stroke="black" stroke-width="5.62883"/>
<path d="M1205.08 914.19C1205.08 911.901 1205.26 909.583 1207.18 908.937" stroke="black" stroke-width="5.62883" stroke-linecap="round"/>
<path d="M1191.42 1039.21C1189.91 1025.47 1190.47 996.114 1190.47 982.48" stroke="black" stroke-width="5.62883" stroke-linecap="round"/>
<path d="M1201.93 982.48V994.037" stroke="black" stroke-width="5.62883" stroke-linecap="round"/>
<path d="M1132.58 918.111C1135.52 914.986 1142.51 915.953 1146.24 920.494" stroke="black" stroke-width="5.62883" stroke-linecap="round"/>
<path d="M1075.79 991.936C1045.79 991.936 1024.23 991.936 991.868 992.965C986.403 1000.49 960.595 1048.15 969.479 1045.4C1010.17 1043.32 1040.74 1043.29 1074.85 1042.39C1123.4 1041.1 1171.42 1040.76 1219.96 1038.65C1224.88 1038.44 1242.28 1039.85 1232.73 1032.97C1224.43 1028.16 1162.98 991.936 1151.73 991.936L1075.79 991.936Z" fill="#B8A1A9" stroke="black" stroke-width="5.62883" stroke-linecap="round"/>
<path d="M973.26 1067.49C971.219 1066.5 968.572 1058.06 967.635 1047.7C974.372 1047.7 1214.43 1039.21 1235.77 1039.21C1237.65 1045.81 1237.65 1048.64 1237.65 1053.35C1237.65 1058.06 1237.4 1062.45 1231.08 1062.45C1222.5 1062.45 982.469 1068.38 973.26 1067.49Z" fill="#B8A1A9" stroke="black" stroke-width="5.62883" stroke-linecap="round"/>
<path d="M1149.84 1213.61C1145.58 1213.61 1043.37 1072.54 1041.18 1069.04C1049.68 1067.92 1050.88 1067.92 1057.24 1067.92C1060.76 1067.92 1069.05 1067.16 1072.59 1067.92C1073.17 1068.9 1164.11 1211.76 1163.04 1212.72C1161.88 1213.78 1151.83 1213.61 1149.84 1213.61Z" fill="#B8A1A9" stroke="black" stroke-width="5.62883" stroke-linecap="round"/>
<path d="M1050.77 1217.81C1055.21 1217.81 1162.87 1069.9 1165.15 1066.27C1155.76 1066.27 1154.88 1065.48 1148.24 1065.48C1144.56 1065.48 1135.08 1065.48 1131.39 1066.27C1130.78 1067.28 1035.87 1215.88 1036.99 1216.89C1038.2 1217.98 1048.69 1217.81 1050.77 1217.81Z" fill="#B8A1A9" stroke="black" stroke-width="5.62883" stroke-linecap="round"/>
<path d="M1013.71 965.655L1048.56 990.622C1043.94 997.206 1031.35 1007.68 1017.94 996.911C1004.52 986.14 1009.52 971.586 1013.71 965.655Z" fill="#FAE684" stroke="black" stroke-width="5.62883"/>
<path d="M1041.61 988.774C1043.9 979.963 1052.26 964.668 1067.42 973.981C1082.57 983.294 1064.95 1000.62 1054.24 1008.11C1053.33 1005.86 1053.18 1001.03 1059.89 999.673C1059.66 995.937 1059.97 987.844 1063.03 985.359C1066.08 982.873 1062.21 981.173 1059.9 980.634C1058.99 981.872 1056.17 984.091 1052.18 983.066C1051.28 984.928 1047.94 988.667 1041.67 988.773C1041.65 988.774 1041.63 988.774 1041.61 988.774Z" fill="#F36648"/>
<path d="M1041.61 988.774C1043.9 979.963 1052.26 964.668 1067.42 973.981C1082.57 983.294 1064.95 1000.62 1054.24 1008.11C1053.33 1005.86 1053.18 1001.03 1059.89 999.673C1059.66 995.937 1059.97 987.844 1063.03 985.359C1066.08 982.873 1062.21 981.173 1059.9 980.634C1058.99 981.872 1056.17 984.091 1052.18 983.066C1051.28 984.935 1047.91 988.692 1041.61 988.774ZM1041.61 988.774C1040.48 989.765 1037.75 991.037 1035.87 988.202M1041.61 988.774C1042.22 988.74 1042.9 989.415 1040.72 992.387" stroke="black" stroke-width="5.62883"/>
<path d="M1028.82 969.312C1037.9 969.638 1054.67 974.623 1049.1 991.96C1043.52 1009.3 1022.66 995.452 1012.93 986.363C1014.91 984.938 1019.57 983.701 1022.42 990.148C1026 989.082 1033.93 987.578 1037.04 990.094C1040.16 992.611 1040.92 988.337 1040.91 985.886C1039.5 985.249 1036.7 982.914 1036.78 978.662C1034.77 978.183 1030.38 975.655 1028.84 969.375C1028.83 969.354 1028.83 969.333 1028.82 969.312Z" fill="#F36648"/>
<path d="M1028.82 969.312C1037.9 969.638 1054.67 974.623 1049.1 991.96C1043.52 1009.3 1022.66 995.452 1012.93 986.363C1014.91 984.938 1019.57 983.701 1022.42 990.148C1026 989.082 1033.93 987.578 1037.04 990.094C1040.16 992.611 1040.92 988.337 1040.91 985.886C1039.5 985.249 1036.7 982.914 1036.78 978.662C1034.77 978.181 1030.35 975.638 1028.82 969.312ZM1028.82 969.312C1027.6 968.398 1025.74 965.937 1028.07 963.412M1028.82 969.312C1029 969.92 1028.5 970.753 1025.11 969.226" stroke="black" stroke-width="5.62883"/>
<path d="M1069.06 985.632C1047.27 985.632 1021.59 986.656 999.8 986.656C991.403 985.632 996.068 999.465 997.934 1003.12C1001.67 1010.44 1005.21 1014.1 1033.2 1015.02C1033.2 1015.02 1061.2 1015.93 1073.51 1007.7C1079.64 1003.6 1082.05 990.91 1078.17 986.656C1077.42 985.835 1069.94 985.632 1069.06 985.632Z" fill="#895A4C" stroke="black" stroke-width="5.62883" stroke-linecap="round"/>
<path d="M1448.73 1205.78C1449.88 1193.26 1440.67 1168.61 1433.77 1156.89C1425.02 1171.67 1386.62 1175.04 1368.98 1175.83C1383.7 1181.08 1387.17 1198.27 1383.14 1199.82C1367.61 1205.78 1371.64 1219.04 1376.81 1220.69C1384.29 1223.08 1391.43 1223.08 1408.46 1223.08H1408.46C1429.74 1223.08 1447.36 1220.67 1448.73 1205.78Z" fill="#FB9450" stroke="black" stroke-width="5.62883"/>
<path d="M1297.7 1211.05C1304.69 1208.21 1313.81 1181.42 1317.5 1168.39C1286.29 1175.5 1266.07 1168.59 1259.86 1164.24C1257.53 1175.62 1251.52 1184.39 1248.8 1187.35C1232.59 1191.47 1229.02 1203.07 1229.25 1210.44C1229.31 1212.19 1230.82 1213.44 1232.58 1213.47C1253.27 1213.82 1291.05 1213.76 1297.7 1211.05Z" fill="#FB9450" stroke="black" stroke-width="5.62883"/>
<path d="M1399.67 1174.75C1404.61 1175.15 1409.03 1185.52 1410.64 1190.28C1412.17 1194.8 1408.6 1197.41 1404.14 1194.58C1398.26 1191.62 1391.15 1191.77 1384.74 1191.77" stroke="#030100" stroke-width="5.62883" stroke-linecap="round"/>
<path d="M1385.91 1196.81C1390.94 1198.36 1396.59 1198.29 1401.18 1201.09C1404.33 1203.02 1401.78 1205.08 1397.82 1206.61C1394.99 1207.71 1393.33 1207.59 1389.99 1205.81C1387.58 1204.52 1385.31 1201.34 1382.63 1200.48" stroke="#030100" stroke-width="5.62883" stroke-linecap="round"/>
<path d="M1280.58 1172.64C1280.58 1176.24 1281.62 1184.41 1278.04 1186.64C1274.72 1188.71 1270.94 1185.77 1267.85 1184.43C1264.15 1182.83 1260.52 1182.26 1256.71 1181.36C1253.08 1180.51 1258.9 1183.42 1260.07 1184.62C1264.46 1189.11 1267.14 1191.42 1262.09 1195.88C1257.8 1199.66 1253.84 1190.82 1251.3 1188.14" stroke="#030100" stroke-width="5.62883" stroke-linecap="round"/>
<path d="M1430.24 1159.98C1453.35 1137.68 1431.78 1110.77 1418.1 1100.1C1386.51 1076.97 1320.12 1035.54 1279.42 1076.97C1244.31 1112.71 1234.98 1139.23 1241.86 1148.12C1270.75 1185.47 1315.66 1170.25 1336.38 1159.98C1342.67 1169.35 1349.73 1173.69 1353.38 1174.8C1369.37 1179.15 1407.12 1182.27 1430.24 1159.98Z" fill="#895A4C"/>
<path d="M1329.11 1145.15C1331.18 1151.1 1333.71 1155.99 1336.38 1159.98M1336.38 1159.98C1342.67 1169.35 1349.73 1173.69 1353.38 1174.8C1369.37 1179.15 1407.12 1182.27 1430.24 1159.98C1453.35 1137.68 1431.78 1110.77 1418.1 1100.1C1386.51 1076.97 1320.12 1035.54 1279.42 1076.97C1244.31 1112.71 1234.98 1139.23 1241.86 1148.12C1270.75 1185.47 1315.66 1170.25 1336.38 1159.98Z" stroke="black" stroke-width="5.62883"/>
<path d="M1386.53 933.516C1386.53 931.141 1381.13 928.172 1378.42 926.984C1365.67 925.203 1318.74 936.484 1315.84 944.797C1315.11 946.911 1315.12 948.372 1315.84 949.444C1298.69 951.262 1290.54 979.957 1288.61 994.078C1272.85 1006.43 1266.98 1022.97 1266.01 1029.7C1288.73 1029.23 1299.04 1041.78 1301.36 1048.11C1304.6 1066.63 1335.16 1067.7 1350.03 1065.92C1352.16 1065.33 1357.91 1062.95 1363.94 1058.2C1369.96 1053.45 1373.4 1045.14 1374.37 1041.58L1380.74 1037.42C1402.99 1032.2 1419.37 1042.96 1421.88 1050.48C1436.71 1040.98 1440.42 1014.41 1440.42 998.828C1440.42 953.703 1407.2 939.651 1386.53 937.672V933.516Z" fill="#C181B0"/>
<path d="M1386.53 937.672C1376.88 943.609 1354.23 957.248 1339.6 955.484C1329.75 954.297 1317.97 952.587 1315.84 949.444M1386.53 937.672C1386.53 936.182 1386.53 934.647 1386.53 933.516C1386.53 931.141 1381.13 928.172 1378.42 926.984C1365.67 925.203 1318.74 936.484 1315.84 944.797C1315.11 946.911 1315.12 948.372 1315.84 949.444M1386.53 937.672C1386.53 939.311 1386.53 936.739 1386.53 937.672ZM1386.53 937.672C1407.2 939.651 1440.42 953.703 1440.42 998.828C1440.42 1014.41 1436.71 1040.98 1421.88 1050.48C1419.37 1042.96 1402.99 1032.2 1380.74 1037.42M1380.74 1037.42C1385.57 1028.51 1396.38 1001.2 1386.53 990.515C1392.71 994.869 1392.79 1015.57 1380.74 1037.42ZM1380.74 1037.42L1374.37 1041.58C1373.4 1045.14 1369.96 1053.45 1363.94 1058.2C1357.91 1062.95 1352.16 1065.33 1350.03 1065.92C1335.16 1067.7 1304.6 1066.63 1301.36 1048.11C1299.04 1041.78 1288.73 1029.23 1266.01 1029.7C1266.98 1022.97 1272.85 1006.43 1288.61 994.078C1290.54 979.957 1298.69 951.262 1315.84 949.444" stroke="black" stroke-width="5.62883"/>
<path d="M1309.09 984.582C1304 997.406 1295.46 1027.07 1309.09 1059.18" stroke="black" stroke-width="5.62883"/>
<path d="M1304.77 878.71C1295.94 892.9 1308.45 903.149 1315.82 906.499L1367.54 928.376C1370.64 928.77 1377.19 929.322 1378.58 928.376C1379.97 927.43 1384.97 923.251 1387.3 921.281C1390.01 918.718 1394.85 908.864 1392.53 889.944C1390.2 871.024 1369.86 866.688 1359.98 866.885C1350.22 858.371 1334.99 869.25 1328.6 875.754C1316.98 874.571 1320.46 882.257 1313.49 884.031C1307.91 885.45 1305.35 881.075 1304.77 878.71Z" fill="#FB9450" stroke="black" stroke-width="5.62883"/>
<path d="M1381.52 915.611C1382.44 906.988 1373.05 907.228 1368.24 908.425C1357.62 917.048 1356.12 910.022 1356.69 905.431C1357.46 903.236 1357.04 897.767 1349.19 893.456C1341.33 889.144 1332.44 891.659 1328.98 893.456C1322.63 896.749 1319.05 902.438 1316.27 907.228C1312.81 913.216 1316.27 919.204 1313.39 922.197C1310.5 925.191 1310.42 932.976 1313.39 935.371C1318.58 939.562 1327.25 942.556 1343.41 942.556C1359.12 942.556 1368.24 933.574 1368.24 927.586C1372.28 927.187 1380.6 924.233 1381.52 915.611Z" fill="#FAE684" stroke="black" stroke-width="5.62883"/>
<ellipse cx="7.87975" cy="11.557" rx="7.87975" ry="11.557" transform="matrix(-0.625231 -0.78044 -0.767803 0.640686 1344.81 915.24)" fill="white"/>
<path d="M1340.61 904.733C1334.87 905.361 1322.9 909.003 1320.94 918.548C1318.48 930.479 1332.62 923.572 1328.93 910.385" stroke="black" stroke-width="5.62883"/>
<path d="M1415.35 1075.59C1432.78 1068.04 1426.44 1056.31 1421.08 1051.38C1409.15 1026.82 1384.6 1032.98 1373.7 1040.27L1368.89 1052.57L1351.12 1070.87C1351.12 1073.43 1351.69 1079.73 1351.69 1086.81C1351.69 1093.9 1360.1 1097.64 1364.31 1098.62L1364.94 1103.5C1365.25 1105.88 1367.03 1107.81 1369.38 1108.29L1373.73 1109.19C1377.25 1109.91 1380.79 1108.04 1382.17 1104.72L1382.5 1103.92C1381.62 1109 1385.63 1110.43 1388.39 1110.43C1410.42 1113.27 1415.54 1088.39 1415.35 1075.59Z" fill="#895A4C"/>
<path d="M1363.16 1086.81L1364.31 1098.62M1364.31 1098.62L1364.94 1103.5C1365.25 1105.88 1367.03 1107.81 1369.38 1108.29L1373.73 1109.19C1377.25 1109.91 1380.79 1108.04 1382.17 1104.72L1384.95 1098.03C1378.99 1107.95 1384.76 1110.43 1388.39 1110.43C1410.42 1113.27 1415.54 1088.39 1415.35 1075.59C1432.78 1068.04 1426.44 1056.31 1421.08 1051.38C1409.15 1026.82 1384.6 1032.98 1373.7 1040.27L1368.89 1052.57L1351.12 1070.87C1351.12 1073.43 1351.69 1079.73 1351.69 1086.81C1351.69 1093.9 1360.1 1097.64 1364.31 1098.62Z" stroke="black" stroke-width="5.62883"/>
<path d="M1251.1 1032.94C1253.94 1029.17 1258.2 1030.58 1264.11 1029.4C1271.02 1028.03 1287.3 1027.4 1297.24 1040.61C1301.68 1046.5 1298.63 1052.09 1303.84 1054.45C1309.04 1056.81 1286.5 1068.32 1272.99 1059.18L1271.06 1053.85C1270.85 1053.29 1270.51 1052.78 1270.06 1052.37L1268.41 1050.85L1266.93 1050.95C1265.35 1051.04 1264.11 1052.35 1264.11 1053.93C1264.11 1055.84 1265.32 1057.54 1267.12 1058.17L1274.17 1060.65L1281.68 1064.39C1284.59 1065.84 1285.7 1069.43 1284.12 1072.28C1283.45 1073.49 1282.22 1074.31 1280.84 1074.45L1266.48 1075.99L1252.33 1070.89C1248.16 1069.39 1245.82 1065.18 1245.83 1060.75C1245.85 1055.64 1244.44 1055.61 1244 1052.99C1243.45 1049.7 1247.55 1037.66 1251.1 1032.94Z" fill="#895A4C" stroke="black" stroke-width="5.62883"/>
<path d="M1388.29 937.253C1393.07 935.073 1403.87 933.487 1409.37 934.428C1419.44 936.154 1428.12 940.565 1437.77 946.667C1440.54 948.421 1444.3 951.285 1446.93 953.258C1449.87 955.465 1444.28 954.526 1442.92 954.633C1428.16 955.8 1412.31 959.637 1399.42 967.186C1386.13 974.968 1372.57 986.394 1366.18 1000.84C1364.74 1004.11 1361.8 1009.07 1361.8 1012.67C1361.8 1022.13 1360.81 1029.52 1359.89 1039.87C1359.48 1044.56 1358.98 1052.11 1357.64 1056.69C1357.64 1056.69 1356.23 1062.47 1352.56 1063.41C1346.15 1065.29 1339.27 1064.3 1333.33 1062.6C1325.79 1060.45 1318.68 1059.35 1311.21 1057.65C1304.38 1056.08 1303.97 1042.22 1302.85 1037.23C1300.09 1024.87 1302.02 1012.27 1304.93 1000.33C1306.15 995.292 1307.07 989.66 1309.05 984.832C1311.19 979.611 1301.26 975.852 1298.51 972.087C1295.58 968.07 1296.04 963.613 1298.51 957.18C1302.25 947.464 1308.21 943.346 1317.75 940.077" stroke="#030100" stroke-width="5.62883" stroke-linecap="round"/>
<path d="M1447.54 955.164C1453.02 956.1 1439.24 977.865 1438.32 980.379" stroke="#030100" stroke-width="5.62883" stroke-linecap="round"/>
<path d="M1360.57 1009.8C1354.62 999.55 1348.6 992.561 1339.25 985.497C1336.74 983.594 1335.63 982.547 1331.44 979.911C1325.17 975.969 1321.41 980.094 1319 982.547C1316.64 984.941 1309.76 991.004 1306.99 992.883" stroke="#030100" stroke-width="5.62883" stroke-linecap="round"/>
<path d="M1329.05 977.228C1330.9 970.82 1334.3 963.906 1334.3 957.266" stroke="#030100" stroke-width="5.62883" stroke-linecap="round"/>
<path d="M1422.56 1052.02C1422.13 1056.67 1408.46 1068.81 1408.46 1062.79C1408.46 1058.58 1401.55 1052.63 1398.54 1050.54C1396 1048.78 1382.82 1042.56 1370.03 1050.54" stroke="#030100" stroke-width="5.62883" stroke-linecap="round"/>
<path d="M1408.9 1011.9C1406.64 1011.9 1404.72 1011.77 1402.6 1012.95" stroke="#030100" stroke-width="5.62883" stroke-linecap="round"/>
<path d="M1294.38 1002.44L1295.43 1001.39" stroke="#030100" stroke-width="5.62883" stroke-linecap="round"/>
<path d="M1415.17 1102.65C1419.9 1112.38 1420.75 1122.59 1420.38 1133.3C1420.14 1140.12 1405.8 1142.83 1401.5 1143.83C1389.05 1146.74 1381.17 1134.85 1376.26 1124.75C1370.25 1112.37 1353.83 1111.11 1342.96 1104.96C1338.07 1102.19 1333.12 1094.89 1328.53 1091.75" stroke="#030100" stroke-width="5.62883" stroke-linecap="round"/>
<path d="M1411.52 1101.2C1413.36 1101.44 1414.09 1114.54 1414.14 1115.98C1414.25 1118.83 1413.41 1120.08 1411.52 1122.02C1408.36 1125.24 1401.41 1125.37 1397.08 1125.37C1389.28 1125.37 1387.89 1117.12 1387.89 1110.62" stroke="#030100" stroke-width="5.62883" stroke-linecap="round"/>
<path d="M1404.7 1116.96V1115.91" stroke="#030100" stroke-width="5.62883" stroke-linecap="round"/>
<path d="M1328.47 981.412C1328.71 979.308 1330.28 984.434 1330.36 984.73C1331.17 987.936 1331.28 991.273 1332.1 994.452C1332.86 997.371 1329.23 998.24 1327.22 998.24C1319.52 998.24 1327.22 981.515 1327.22 979.328" stroke="#030100" stroke-width="5.62883" stroke-linecap="round"/>
<path d="M1389.99 939.404C1383.95 939.404 1376.35 945.692 1371.15 949.181C1365.95 952.671 1361.62 957.435 1358.11 962.053C1355.22 965.861 1345.8 983.546 1343.76 987.733" stroke="#030100" stroke-width="5.62883" stroke-linecap="round"/>
<path d="M1311.19 988.784C1311.19 978.798 1316.22 964.158 1320.65 955.164" stroke="#030100" stroke-width="5.62883" stroke-linecap="round"/>
<path d="M1183.04 990.886C1161.72 990.886 1136.59 991.917 1115.26 991.917C1107.05 990.886 1111.61 1004.82 1113.44 1008.5C1119.83 1021.4 1129.83 1026.23 1141.51 1027.95C1157.04 1030.23 1175.53 1027.95 1187.4 1013.11C1191.96 1007.4 1195.76 996.201 1191.96 991.917C1191.23 991.09 1183.91 990.886 1183.04 990.886Z" fill="#895A4C" stroke="black" stroke-width="5.6308" stroke-linecap="round"/>
<path d="M1164.11 991.185L1136.79 991.195L1116.51 991.256C1118.95 976.239 1132.86 977.329 1139.9 979.886C1141.7 977.768 1144.43 976.23 1148.5 976.196C1161.75 976.088 1163.32 985.013 1164.11 991.185Z" fill="#FAE684"/>
<path d="M1136.79 991.195L1164.11 991.185C1163.32 985.013 1161.75 976.088 1148.5 976.196C1137.5 976.286 1136.29 987.371 1136.79 991.195ZM1136.79 991.195L1116.51 991.256C1119.07 975.509 1134.24 977.473 1140.88 980.267" stroke="black" stroke-width="5.6308"/>
<path d="M1293.25 1068.21L1248.15 1023.46" stroke="black" stroke-width="5.62883"/>
<path d="M1293.96 1065.73L1257.61 1015.05" stroke="black" stroke-width="5.62883"/>
</g>
</g>
<defs>
<clipPath id="clip0_224_8308">
<rect width="1660" height="1299.63" fill="white" transform="translate(0 18)"/>
</clipPath>
<clipPath id="clip1_224_8308">
<rect width="1660" height="1299.63" fill="white" transform="translate(0 18)"/>
</clipPath>
</defs>
</svg>
