<svg width="1660" height="1318" viewBox="0 0 1660 1318" fill="none" xmlns="http://www.w3.org/2000/svg">
<rect width="1660" height="1318" fill="white"/>
<path d="M573.176 690V653.966H553.74V648.204H580.228V690H573.176ZM575.928 639.432C574.323 639.432 572.975 638.945 571.886 637.97C570.797 636.938 570.252 635.591 570.252 633.928C570.252 632.265 570.797 630.947 571.886 629.972C572.975 628.94 574.323 628.424 575.928 628.424C577.533 628.424 578.881 628.94 579.97 629.972C581.059 630.947 581.604 632.265 581.604 633.928C581.604 635.591 581.059 636.938 579.97 637.97C578.881 638.945 577.533 639.432 575.928 639.432ZM605.564 690V648.204H611.412L612.014 655.342H612.358C614.537 652.991 616.888 651.042 619.41 649.494C621.933 647.946 624.828 647.172 628.096 647.172C633.084 647.172 636.725 648.605 639.018 651.472C641.369 654.281 642.544 658.467 642.544 664.028V690H635.492V664.974C635.492 661.018 634.747 658.094 633.256 656.202C631.766 654.253 629.3 653.278 625.86 653.278C624.599 653.278 623.424 653.45 622.334 653.794C621.302 654.081 620.27 654.539 619.238 655.17C618.206 655.801 617.146 656.603 616.056 657.578C614.967 658.495 613.82 659.585 612.616 660.846V690H605.564ZM708.697 707.63V648.204H714.545L715.147 653.536H715.405C717.355 651.701 719.591 650.182 722.113 648.978C724.693 647.774 727.273 647.172 729.853 647.172C732.663 647.172 735.128 647.688 737.249 648.72C739.428 649.695 741.234 651.128 742.667 653.02C744.158 654.855 745.276 657.091 746.021 659.728C746.767 662.308 747.139 665.232 747.139 668.5C747.139 672.055 746.623 675.237 745.591 678.046C744.559 680.798 743.155 683.149 741.377 685.098C739.657 687.047 737.651 688.538 735.357 689.57C733.064 690.545 730.656 691.032 728.133 691.032C726.184 691.032 724.063 690.573 721.769 689.656C719.533 688.681 717.498 687.334 715.663 685.614H715.405L715.749 693.526V707.63H708.697ZM726.929 685.098C730.713 685.098 733.809 683.636 736.217 680.712C738.625 677.788 739.829 673.717 739.829 668.5C739.829 666.207 739.6 664.114 739.141 662.222C738.683 660.33 737.966 658.725 736.991 657.406C736.074 656.03 734.87 654.969 733.379 654.224C731.889 653.479 730.111 653.106 728.047 653.106C726.213 653.106 724.235 653.622 722.113 654.654C720.049 655.629 717.928 657.205 715.749 659.384V680.196C717.756 681.973 719.763 683.235 721.769 683.98C723.776 684.725 725.496 685.098 726.929 685.098ZM764.822 690V648.204H770.67L771.272 658.094H771.53C773.708 654.711 776.374 652.045 779.528 650.096C782.738 648.147 786.293 647.172 790.192 647.172C791.74 647.172 793.173 647.315 794.492 647.602C795.81 647.831 797.129 648.261 798.448 648.892L796.814 654.998C795.323 654.482 794.062 654.109 793.03 653.88C792.055 653.651 790.736 653.536 789.074 653.536C785.92 653.536 782.882 654.453 779.958 656.288C777.091 658.065 774.396 661.133 771.874 665.49V690H764.822ZM829.632 691.032C826.88 691.032 824.243 690.545 821.72 689.57C819.255 688.595 817.076 687.191 815.184 685.356C813.292 683.464 811.773 681.171 810.626 678.476C809.537 675.724 808.992 672.628 808.992 669.188C808.992 665.691 809.537 662.595 810.626 659.9C811.773 657.148 813.292 654.826 815.184 652.934C817.076 651.042 819.255 649.609 821.72 648.634C824.243 647.659 826.88 647.172 829.632 647.172C832.384 647.172 834.993 647.659 837.458 648.634C839.981 649.609 842.188 651.042 844.08 652.934C845.972 654.826 847.463 657.148 848.552 659.9C849.699 662.595 850.272 665.691 850.272 669.188C850.272 672.628 849.699 675.724 848.552 678.476C847.463 681.171 845.972 683.464 844.08 685.356C842.188 687.191 839.981 688.595 837.458 689.57C834.993 690.545 832.384 691.032 829.632 691.032ZM829.632 685.184C831.639 685.184 833.445 684.811 835.05 684.066C836.713 683.263 838.117 682.174 839.264 680.798C840.468 679.365 841.385 677.673 842.016 675.724C842.647 673.775 842.962 671.596 842.962 669.188C842.962 666.78 842.647 664.601 842.016 662.652C841.385 660.645 840.468 658.925 839.264 657.492C838.117 656.059 836.713 654.969 835.05 654.224C833.445 653.421 831.639 653.02 829.632 653.02C827.625 653.02 825.791 653.421 824.128 654.224C822.523 654.969 821.118 656.059 819.914 657.492C818.767 658.925 817.879 660.645 817.248 662.652C816.617 664.601 816.302 666.78 816.302 669.188C816.302 671.596 816.617 673.775 817.248 675.724C817.879 677.673 818.767 679.365 819.914 680.798C821.118 682.174 822.523 683.263 824.128 684.066C825.791 684.811 827.625 685.184 829.632 685.184ZM880.854 709.264C874.72 709.264 869.961 708.261 866.578 706.254C863.253 704.247 861.59 701.381 861.59 697.654C861.59 695.991 862.164 694.357 863.31 692.752C864.514 691.147 866.234 689.685 868.47 688.366V688.022C867.324 687.391 866.32 686.531 865.46 685.442C864.6 684.353 864.17 682.919 864.17 681.142C864.17 679.823 864.6 678.476 865.46 677.1C866.32 675.667 867.553 674.405 869.158 673.316V672.972C867.725 671.883 866.492 670.449 865.46 668.672C864.486 666.837 863.998 664.659 863.998 662.136C863.998 659.843 864.428 657.779 865.288 655.944C866.206 654.109 867.41 652.561 868.9 651.3C870.391 649.981 872.111 648.978 874.06 648.29C876.067 647.545 878.188 647.172 880.424 647.172C882.718 647.172 884.782 647.516 886.616 648.204H903.902V653.966H893.066C894.041 654.941 894.872 656.173 895.56 657.664C896.248 659.155 896.592 660.731 896.592 662.394C896.592 664.63 896.162 666.637 895.302 668.414C894.5 670.191 893.353 671.711 891.862 672.972C890.429 674.176 888.709 675.122 886.702 675.81C884.753 676.441 882.66 676.756 880.424 676.756C879.335 676.756 878.16 676.641 876.898 676.412C875.694 676.125 874.519 675.724 873.372 675.208C871.194 676.584 870.104 678.189 870.104 680.024C870.104 681.687 870.85 682.919 872.34 683.722C873.888 684.467 876.038 684.84 878.79 684.84H888.164C893.554 684.84 897.538 685.585 900.118 687.076C902.756 688.567 904.074 691.089 904.074 694.644C904.074 696.593 903.53 698.457 902.44 700.234C901.351 702.011 899.803 703.559 897.796 704.878C895.79 706.197 893.353 707.257 890.486 708.06C887.62 708.863 884.409 709.264 880.854 709.264ZM880.424 672.026C883.119 672.026 885.384 671.137 887.218 669.36C889.11 667.583 890.056 665.175 890.056 662.136C890.056 660.703 889.798 659.384 889.282 658.18C888.766 656.976 888.078 655.944 887.218 655.084C886.358 654.224 885.326 653.565 884.122 653.106C882.976 652.59 881.743 652.332 880.424 652.332C879.106 652.332 877.844 652.59 876.64 653.106C875.494 653.565 874.49 654.224 873.63 655.084C872.77 655.944 872.082 656.976 871.566 658.18C871.05 659.384 870.792 660.703 870.792 662.136C870.792 665.175 871.738 667.583 873.63 669.36C875.522 671.137 877.787 672.026 880.424 672.026ZM881.37 704.104C883.778 704.104 885.957 703.875 887.906 703.416C889.856 702.957 891.518 702.327 892.894 701.524C894.27 700.779 895.302 699.89 895.99 698.858C896.736 697.883 897.108 696.851 897.108 695.762C897.108 693.755 896.306 692.408 894.7 691.72C893.152 691.032 890.773 690.688 887.562 690.688H879.392C878.188 690.688 877.042 690.631 875.952 690.516C874.92 690.459 873.946 690.287 873.028 690C871.022 691.089 869.617 692.207 868.814 693.354C868.069 694.558 867.696 695.762 867.696 696.966C867.696 699.145 868.843 700.865 871.136 702.126C873.487 703.445 876.898 704.104 881.37 704.104ZM919.521 690V648.204H925.369L925.971 658.094H926.229C928.408 654.711 931.074 652.045 934.227 650.096C937.438 648.147 940.992 647.172 944.891 647.172C946.439 647.172 947.872 647.315 949.191 647.602C950.51 647.831 951.828 648.261 953.147 648.892L951.513 654.998C950.022 654.482 948.761 654.109 947.729 653.88C946.754 653.651 945.436 653.536 943.773 653.536C940.62 653.536 937.581 654.453 934.657 656.288C931.79 658.065 929.096 661.133 926.573 665.49V690H919.521ZM986.911 691.032C983.758 691.032 980.805 690.545 978.053 689.57C975.359 688.595 972.979 687.162 970.915 685.27C968.909 683.378 967.303 681.085 966.099 678.39C964.953 675.638 964.379 672.513 964.379 669.016C964.379 665.633 964.953 662.595 966.099 659.9C967.303 657.205 968.88 654.912 970.829 653.02C972.836 651.128 975.101 649.695 977.623 648.72C980.203 647.688 982.898 647.172 985.707 647.172C988.689 647.172 991.355 647.659 993.705 648.634C996.113 649.551 998.12 650.87 999.725 652.59C1001.39 654.31 1002.65 656.374 1003.51 658.782C1004.37 661.19 1004.8 663.856 1004.8 666.78C1004.8 667.583 1004.77 668.357 1004.71 669.102C1004.66 669.847 1004.57 670.507 1004.46 671.08H971.517C971.976 675.839 973.696 679.422 976.677 681.83C979.716 684.181 983.414 685.356 987.771 685.356C990.294 685.356 992.559 685.012 994.565 684.324C996.629 683.579 998.607 682.604 1000.5 681.4L1003.08 686.044C1001.02 687.42 998.636 688.595 995.941 689.57C993.304 690.545 990.294 691.032 986.911 691.032ZM985.879 652.762C984.159 652.762 982.497 653.049 980.891 653.622C979.343 654.195 977.939 655.027 976.677 656.116C975.416 657.148 974.355 658.467 973.495 660.072C972.635 661.677 972.033 663.512 971.689 665.576H998.349C998.063 661.276 996.801 658.065 994.565 655.944C992.387 653.823 989.491 652.762 985.879 652.762ZM1036.76 691.032C1032.63 691.032 1028.82 690.401 1025.32 689.14C1021.82 687.821 1018.78 686.273 1016.2 684.496L1019.47 679.852C1021.88 681.572 1024.52 682.948 1027.38 683.98C1030.31 685.012 1033.72 685.528 1037.62 685.528C1041.17 685.528 1043.81 684.897 1045.53 683.636C1047.31 682.317 1048.2 680.769 1048.2 678.992C1048.2 678.189 1048.05 677.444 1047.77 676.756C1047.48 676.068 1046.85 675.409 1045.87 674.778C1044.96 674.147 1043.64 673.545 1041.92 672.972C1040.2 672.399 1037.93 671.825 1035.12 671.252C1029.68 670.105 1025.58 668.586 1022.83 666.694C1020.13 664.745 1018.78 662.193 1018.78 659.04C1018.78 657.377 1019.16 655.829 1019.9 654.396C1020.65 652.905 1021.74 651.644 1023.17 650.612C1024.66 649.523 1026.47 648.691 1028.59 648.118C1030.77 647.487 1033.29 647.172 1036.16 647.172C1039.37 647.172 1042.46 647.717 1045.44 648.806C1048.42 649.838 1050.95 651.071 1053.01 652.504L1049.57 657.062C1047.62 655.743 1045.47 654.683 1043.12 653.88C1040.77 653.077 1038.25 652.676 1035.55 652.676C1032 652.676 1029.5 653.278 1028.07 654.482C1026.64 655.686 1025.92 657.091 1025.92 658.696C1025.92 660.531 1026.87 661.935 1028.76 662.91C1030.65 663.827 1033.75 664.745 1038.05 665.662C1041.54 666.407 1044.41 667.21 1046.65 668.07C1048.88 668.873 1050.63 669.79 1051.89 670.822C1053.21 671.854 1054.1 673.001 1054.56 674.262C1055.08 675.523 1055.33 676.957 1055.33 678.562C1055.33 680.282 1054.93 681.887 1054.13 683.378C1053.33 684.869 1052.12 686.187 1050.52 687.334C1048.97 688.481 1047.02 689.369 1044.67 690C1042.38 690.688 1039.74 691.032 1036.76 691.032ZM1088.32 691.032C1084.2 691.032 1080.38 690.401 1076.89 689.14C1073.39 687.821 1070.35 686.273 1067.77 684.496L1071.04 679.852C1073.45 681.572 1076.08 682.948 1078.95 683.98C1081.87 685.012 1085.29 685.528 1089.18 685.528C1092.74 685.528 1095.38 684.897 1097.1 683.636C1098.87 682.317 1099.76 680.769 1099.76 678.992C1099.76 678.189 1099.62 677.444 1099.33 676.756C1099.05 676.068 1098.41 675.409 1097.44 674.778C1096.52 674.147 1095.2 673.545 1093.48 672.972C1091.76 672.399 1089.5 671.825 1086.69 671.252C1081.24 670.105 1077.14 668.586 1074.39 666.694C1071.7 664.745 1070.35 662.193 1070.35 659.04C1070.35 657.377 1070.72 655.829 1071.47 654.396C1072.21 652.905 1073.3 651.644 1074.74 650.612C1076.23 649.523 1078.03 648.691 1080.15 648.118C1082.33 647.487 1084.86 647.172 1087.72 647.172C1090.93 647.172 1094.03 647.717 1097.01 648.806C1099.99 649.838 1102.51 651.071 1104.58 652.504L1101.14 657.062C1099.19 655.743 1097.04 654.683 1094.69 653.88C1092.34 653.077 1089.81 652.676 1087.12 652.676C1083.57 652.676 1081.07 653.278 1079.64 654.482C1078.2 655.686 1077.49 657.091 1077.49 658.696C1077.49 660.531 1078.43 661.935 1080.33 662.91C1082.22 663.827 1085.31 664.745 1089.61 665.662C1093.11 666.407 1095.98 667.21 1098.21 668.07C1100.45 668.873 1102.2 669.79 1103.46 670.822C1104.78 671.854 1105.67 673.001 1106.13 674.262C1106.64 675.523 1106.9 676.957 1106.9 678.562C1106.9 680.282 1106.5 681.887 1105.7 683.378C1104.89 684.869 1103.69 686.187 1102.08 687.334C1100.54 688.481 1098.59 689.369 1096.24 690C1093.94 690.688 1091.31 691.032 1088.32 691.032Z" fill="black"/>
</svg>
